<?xml version="1.0" encoding="UTF-8"?>
<svg width="355px" height="311px" viewBox="0 0 355 311" version="1.1" xmlns="http://www.w3.org/2000/svg" xmlns:xlink="http://www.w3.org/1999/xlink">
    <!-- Generator: Sketch 49.2 (51160) - http://www.bohemiancoding.com/sketch -->
    <title>Group 4</title>
    <desc>Created with Sketch.</desc>
    <defs></defs>
    <g id="Page-1" stroke="none" stroke-width="1" fill="none" fill-rule="evenodd" opacity="0.501524003">
        <g id="Portfolio" transform="translate(-704.000000, -6519.000000)" fill="#F2ECE8">
            <g id="Group-2" transform="translate(382.000000, 6519.000000)">
                <g id="Group-4" transform="translate(322.000000, 0.000000)">
                    <path d="M151.54882,81.4196401 L142.741782,96.6714319 L112.952965,89.625563 L110.45757,73.8525064 L144.292109,62.8739666 L151.54882,75.4506787 C152.465904,77.0392571 152.465904,79.8262648 151.54882,81.4196401 Z M133.885971,112.019961 C132.966489,113.601344 130.547852,115.002843 128.715284,115.002843 L116.957908,115.002843 L113.539034,93.3519666 L140.918809,99.8278021 L133.885971,112.019961 Z M88.2061064,112.019961 L73.1593834,85.9567224 L107.101061,74.9438046 L113.419901,115.002843 L93.3711965,115.002843 C91.5346312,115.002843 89.1231898,113.601344 88.2061064,112.019961 Z M70.5344623,75.4458817 L88.2061064,44.8447609 C89.1231898,43.2577815 91.5290343,41.8650771 93.3711965,41.8650771 L99.5077393,41.8650771 L93.0897551,75.8168432 L71.3723902,82.867509 L70.5344623,81.4196401 C69.6173789,79.8262648 69.6173789,77.0392571 70.5344623,75.4458817 Z M133.885971,44.8447609 L142.506715,59.7815553 L96.8732235,74.5872339 L103.058539,41.8650771 L128.715284,41.8650771 C130.553449,41.8650771 132.966489,43.2577815 133.885971,44.8447609 Z M154.565521,73.7046015 L136.908269,43.1026812 C135.384327,40.4507866 131.781557,38.3753213 128.715284,38.3753213 L93.3711965,38.3753213 C90.3065231,38.3753213 86.7077506,40.4507866 85.1830096,43.0978843 L67.5169623,73.7046015 C65.9778294,76.3524987 65.9778294,80.5122237 67.5169623,83.1641183 L85.1830096,113.765239 C86.7125479,116.417933 90.3065231,118.491 93.3711965,118.491 L128.715284,118.491 C131.77596,118.491 135.37953,116.417933 136.908269,113.765239 L154.565521,83.1641183 C156.106253,80.5122237 156.106253,76.3524987 154.565521,73.7046015 Z" id="Fill-8"></path>
                    <path d="M85.1890062,119.794162 L69.1244566,147.603478 L49.2588485,108.401488 L76.8513035,99.3992776 L85.1890062,113.831596 C86.0988936,115.415378 86.0988936,118.205584 85.1890062,119.794162 Z M62.3458756,153.383761 L41.384085,153.383761 L52.9567652,123.439018 L66.960076,151.066051 C65.847103,152.347627 63.9081954,153.383761 62.3458756,153.383761 Z M21.8398958,150.395283 L4.16825169,119.794162 C3.81804899,119.178558 3.64214809,118.379072 3.55819538,117.548406 L45.0931954,134.107357 L37.6373958,153.383761 L27.0073846,153.383761 C25.1700197,153.383761 22.7521819,151.988658 21.8398958,150.395283 Z M21.843094,83.2256787 C22.7521819,81.6371003 25.1700197,80.2411979 27.0073846,80.2411979 L31.0690963,80.2411979 L50.8371593,119.241717 L46.3484882,130.849452 L4.10188908,114.009082 C4.12987331,113.951519 4.13946791,113.878766 4.16825169,113.831596 L21.843094,83.2256787 Z M67.5117652,83.2256787 L75.0659093,96.3052674 L47.6597494,105.254712 L34.9884882,80.2411979 L62.3458756,80.2411979 C64.1776436,80.2411979 66.5898846,81.6371003 67.5117652,83.2256787 Z M70.533263,81.4827995 C69.0029251,78.8309049 65.410549,76.7506427 62.3458756,76.7506427 L27.0073846,76.7506427 C23.941112,76.7506427 20.3487359,78.8309049 18.8175985,81.4780026 L1.15075169,112.076725 C-0.383583896,114.729419 -0.383583896,118.886746 1.15075169,121.53944 L18.8136008,152.14056 C20.3383418,154.794853 23.9371143,156.875915 27.0073846,156.875915 L62.3458756,156.875915 C65.410549,156.875915 69.0077224,154.794853 70.533263,152.14056 L88.2105039,121.53944 C89.7352449,118.886746 89.7352449,114.729419 88.2105039,112.08472 L70.533263,81.4827995 Z" id="Fill-13"></path>
                    <path d="M136.893477,37.0817532 L141.291799,29.4738458 L168.591619,41.8067147 L148.343826,62.8731671 L136.893477,43.0443188 C135.977193,41.4557404 135.977193,38.6711311 136.893477,37.0817532 Z M154.568319,6.46943959 C155.477407,4.88725707 157.895245,3.49055527 159.73261,3.49055527 L181.409198,3.49055527 L189.519029,47.4326967 L143.043612,26.433401 L154.568319,6.46943959 Z M200.23699,6.47503599 L206.479873,17.2816864 L188.310909,21.6892519 L184.9544,3.49055527 L195.071101,3.49055527 C196.902869,3.49055527 199.31511,4.88725707 200.23699,6.47503599 Z M217.914231,43.0443188 L210.028274,56.6939409 L193.387249,49.1835707 L188.949749,25.1286401 L208.306044,20.4380566 L217.904637,37.0777558 C218.824119,38.6711311 218.824119,41.4557404 217.914231,43.0443188 Z M200.23699,73.6502365 C199.31511,75.2388149 196.902869,76.6323188 195.071101,76.6323188 L159.73261,76.6323188 C157.895245,76.6323188 155.477407,75.2388149 154.565121,73.6502365 L150.162002,66.0231414 L171.964918,43.3361311 L208.272463,59.7343856 L200.23699,73.6502365 Z M151.538826,75.3915167 C153.073961,78.0434113 156.666337,80.126072 159.73261,80.126072 L195.071101,80.126072 C198.135774,80.126072 201.72815,78.0434113 203.258488,75.3963136 L220.935729,44.7911954 C222.46047,42.1377018 222.46047,37.9867712 220.935729,35.3340771 L203.258488,4.72815938 C201.732948,2.0810617 198.135774,0 195.071101,0 L159.73261,0 C156.66234,0 153.063567,2.0810617 151.542824,4.72815938 L133.875977,35.3340771 C132.341641,37.9867712 132.341641,42.1377018 133.875977,44.7911954 L151.538826,75.3915167 Z" id="Fill-15"></path>
                    <path d="M217.914231,119.794162 L201.849682,147.603478 L181.984074,108.401488 L209.576529,99.3992776 L217.914231,113.831596 C218.824119,115.415378 218.824119,118.205584 217.914231,119.794162 Z M195.071101,153.383761 L174.10931,153.383761 L185.68199,123.439018 L199.685301,151.066051 C198.572328,152.347627 196.633421,153.383761 195.071101,153.383761 Z M154.565121,150.395283 L136.893477,119.794162 C136.543274,119.178558 136.367373,118.379072 136.283421,117.548406 L177.818421,134.107357 L170.362621,153.383761 L159.73261,153.383761 C157.895245,153.383761 155.477407,151.988658 154.565121,150.395283 Z M154.568319,83.2256787 C155.477407,81.6371003 157.895245,80.2411979 159.73261,80.2411979 L163.794322,80.2411979 L183.562385,119.241717 L179.073713,130.849452 L136.827114,114.009082 C136.855099,113.951519 136.864693,113.878766 136.893477,113.831596 L154.568319,83.2256787 Z M200.23699,83.2256787 L207.791135,96.3052674 L180.384975,105.254712 L167.713713,80.2411979 L195.071101,80.2411979 C196.902869,80.2411979 199.31511,81.6371003 200.23699,83.2256787 Z M203.258488,81.4827995 C201.72815,78.8309049 198.135774,76.7506427 195.071101,76.7506427 L159.73261,76.7506427 C156.666337,76.7506427 153.073961,78.8309049 151.542824,81.4780026 L133.875977,112.076725 C132.341641,114.729419 132.341641,118.886746 133.875977,121.53944 L151.538826,152.14056 C153.063567,154.794853 156.66234,156.875915 159.73261,156.875915 L195.071101,156.875915 C198.135774,156.875915 201.732948,154.794853 203.258488,152.14056 L220.935729,121.53944 C222.46047,118.886746 222.46047,114.729419 220.935729,112.08472 L203.258488,81.4827995 Z" id="Fill-18"></path>
                    <path d="M283.186208,235.044319 L274.379169,250.296111 L244.590352,243.250242 L242.094958,227.477185 L275.929496,216.498645 L283.186208,229.075357 C284.103291,230.663936 284.103291,233.450943 283.186208,235.044319 Z M265.523359,265.64464 C264.603877,267.226023 262.185239,268.627522 260.352672,268.627522 L248.595296,268.627522 L245.176422,246.976645 L272.556197,253.452481 L265.523359,265.64464 Z M219.843494,265.64464 L204.796771,239.581401 L238.738449,228.568483 L245.057289,268.627522 L225.008584,268.627522 C223.172019,268.627522 220.760577,267.226023 219.843494,265.64464 Z M202.17185,229.07056 L219.843494,198.46944 C220.760577,196.88246 223.166422,195.489756 225.008584,195.489756 L231.145127,195.489756 L224.727142,229.441522 L203.009778,236.492188 L202.17185,235.044319 C201.254766,233.450943 201.254766,230.663936 202.17185,229.07056 Z M265.523359,198.46944 L274.144102,213.406234 L228.510611,228.211913 L234.695926,195.489756 L260.352672,195.489756 C262.190836,195.489756 264.603877,196.88246 265.523359,198.46944 Z M286.202908,227.32928 L268.545656,196.72736 C267.021715,194.075465 263.418944,192 260.352672,192 L225.008584,192 C221.94391,192 218.345138,194.075465 216.820397,196.722563 L199.15435,227.32928 C197.615217,229.977177 197.615217,234.136902 199.15435,236.788797 L216.820397,267.389918 C218.349935,270.042612 221.94391,272.115679 225.008584,272.115679 L260.352672,272.115679 C263.413347,272.115679 267.016917,270.042612 268.545656,267.389918 L286.202908,236.788797 C287.74364,234.136902 287.74364,229.977177 286.202908,227.32928 Z" id="Fill-20"></path>
                    <path d="M350.189006,273.043519 L334.124457,300.852835 L314.258849,261.650846 L341.851303,252.648635 L350.189006,267.080954 C351.098894,268.664735 351.098894,271.454941 350.189006,273.043519 Z M327.345876,306.633118 L306.384085,306.633118 L317.956765,276.688375 L331.960076,304.315409 C330.847103,305.596985 328.908195,306.633118 327.345876,306.633118 Z M286.839896,303.64464 L269.168252,273.043519 C268.818049,272.427915 268.642148,271.628429 268.558195,270.797763 L310.093195,287.356715 L302.637396,306.633118 L292.007385,306.633118 C290.17002,306.633118 287.752182,305.238015 286.839896,303.64464 Z M286.843094,236.475036 C287.752182,234.886458 290.17002,233.490555 292.007385,233.490555 L296.069096,233.490555 L315.837159,272.491075 L311.348488,284.09881 L269.101889,267.25844 C269.129873,267.200877 269.139468,267.128123 269.168252,267.080954 L286.843094,236.475036 Z M332.511765,236.475036 L340.065909,249.554625 L312.659749,258.504069 L299.988488,233.490555 L327.345876,233.490555 C329.177644,233.490555 331.589885,234.886458 332.511765,236.475036 Z M335.533263,234.732157 C334.002925,232.080262 330.410549,230 327.345876,230 L292.007385,230 C288.941112,230 285.348736,232.080262 283.817599,234.72736 L266.150752,265.326082 C264.616416,267.978776 264.616416,272.136103 266.150752,274.788797 L283.813601,305.389918 C285.338342,308.044211 288.937114,310.125272 292.007385,310.125272 L327.345876,310.125272 C330.410549,310.125272 334.007722,308.044211 335.533263,305.389918 L353.210504,274.788797 C354.735245,272.136103 354.735245,267.978776 353.210504,265.334077 L335.533263,234.732157 Z" id="Fill-22"></path>
                    <path d="M283.474496,158.170283 L274.667458,173.422075 L244.87864,166.376206 L242.383246,150.603149 L276.217784,139.624609 L283.474496,152.201321 C284.391579,153.7899 284.391579,156.576907 283.474496,158.170283 Z M265.811647,188.770604 C264.892165,190.351987 262.473528,191.753486 260.64096,191.753486 L248.883584,191.753486 L245.46471,170.102609 L272.844485,176.578445 L265.811647,188.770604 Z M220.131782,188.770604 L205.085059,162.707365 L239.026737,151.694447 L245.345577,191.753486 L225.296872,191.753486 C223.460307,191.753486 221.048865,190.351987 220.131782,188.770604 Z M202.460138,152.196524 L220.131782,121.595404 C221.048865,120.008424 223.45471,118.61572 225.296872,118.61572 L231.433415,118.61572 L225.015431,152.567486 L203.298066,159.618152 L202.460138,158.170283 C201.543055,156.576907 201.543055,153.7899 202.460138,152.196524 Z M265.811647,121.595404 L274.43239,136.532198 L228.798899,151.337877 L234.984215,118.61572 L260.64096,118.61572 C262.479124,118.61572 264.892165,120.008424 265.811647,121.595404 Z M286.491197,150.455244 L268.833944,119.853324 C267.310003,117.201429 263.707233,115.125964 260.64096,115.125964 L225.296872,115.125964 C222.232199,115.125964 218.633426,117.201429 217.108685,119.848527 L199.442638,150.455244 C197.903505,153.103141 197.903505,157.262866 199.442638,159.914761 L217.108685,190.515882 C218.638224,193.168576 222.232199,195.241643 225.296872,195.241643 L260.64096,195.241643 C263.701636,195.241643 267.305206,193.168576 268.833944,190.515882 L286.491197,159.914761 C288.031928,157.262866 288.031928,153.103141 286.491197,150.455244 Z" id="Fill-25"></path>
                    <path d="M268.819153,37.0817532 L273.217475,29.4738458 L300.517294,41.8067147 L280.269502,62.8731671 L268.819153,43.0443188 C267.902869,41.4557404 267.902869,38.6711311 268.819153,37.0817532 Z M286.493995,6.46943959 C287.403083,4.88725707 289.820921,3.49055527 291.658285,3.49055527 L313.334873,3.49055527 L321.444704,47.4326967 L274.969288,26.433401 L286.493995,6.46943959 Z M332.162666,6.47503599 L338.405549,17.2816864 L320.236585,21.6892519 L316.880076,3.49055527 L326.996776,3.49055527 C328.828544,3.49055527 331.240785,4.88725707 332.162666,6.47503599 Z M349.839907,43.0443188 L341.95395,56.6939409 L325.312925,49.1835707 L320.875425,25.1286401 L340.23172,20.4380566 L349.830312,37.0777558 C350.749794,38.6711311 350.749794,41.4557404 349.839907,43.0443188 Z M332.162666,73.6502365 C331.240785,75.2388149 328.828544,76.6323188 326.996776,76.6323188 L291.658285,76.6323188 C289.820921,76.6323188 287.403083,75.2388149 286.490797,73.6502365 L282.087677,66.0231414 L303.890594,43.3361311 L340.198139,59.7343856 L332.162666,73.6502365 Z M283.464502,75.3915167 C284.999637,78.0434113 288.592013,80.126072 291.658285,80.126072 L326.996776,80.126072 C330.06145,80.126072 333.653826,78.0434113 335.184164,75.3963136 L352.861405,44.7911954 C354.386146,42.1377018 354.386146,37.9867712 352.861405,35.3340771 L335.184164,4.72815938 C333.658623,2.0810617 330.06145,0 326.996776,0 L291.658285,0 C288.588015,0 284.989243,2.0810617 283.468499,4.72815938 L265.801653,35.3340771 C264.267317,37.9867712 264.267317,42.1377018 265.801653,44.7911954 L283.464502,75.3915167 Z" id="Fill-27"></path>
                    <path d="M350.639457,119.794162 L334.574907,147.603478 L314.709299,108.401488 L342.301754,99.3992776 L350.639457,113.831596 C351.549344,115.415378 351.549344,118.205584 350.639457,119.794162 Z M327.796326,153.383761 L306.834535,153.383761 L318.407216,123.439018 L332.410526,151.066051 C331.297553,152.347627 329.358646,153.383761 327.796326,153.383761 Z M287.290346,150.395283 L269.618702,119.794162 C269.268499,119.178558 269.092599,118.379072 269.008646,117.548406 L310.543646,134.107357 L303.087846,153.383761 L292.457835,153.383761 C290.62047,153.383761 288.202632,151.988658 287.290346,150.395283 Z M287.293544,83.2256787 C288.202632,81.6371003 290.62047,80.2411979 292.457835,80.2411979 L296.519547,80.2411979 L316.28761,119.241717 L311.798939,130.849452 L269.55234,114.009082 C269.580324,113.951519 269.589918,113.878766 269.618702,113.831596 L287.293544,83.2256787 Z M332.962216,83.2256787 L340.51636,96.3052674 L313.1102,105.254712 L300.438939,80.2411979 L327.796326,80.2411979 C329.628094,80.2411979 332.040335,81.6371003 332.962216,83.2256787 Z M335.983713,81.4827995 C334.453376,78.8309049 330.860999,76.7506427 327.796326,76.7506427 L292.457835,76.7506427 C289.391562,76.7506427 285.799186,78.8309049 284.268049,81.4780026 L266.601202,112.076725 C265.066867,114.729419 265.066867,118.886746 266.601202,121.53944 L284.264051,152.14056 C285.788792,154.794853 289.387565,156.875915 292.457835,156.875915 L327.796326,156.875915 C330.860999,156.875915 334.458173,154.794853 335.983713,152.14056 L353.660954,121.53944 C355.185695,118.886746 355.185695,114.729419 353.660954,112.08472 L335.983713,81.4827995 Z" id="Fill-30"></path>
                </g>
            </g>
        </g>
    </g>
</svg>