<?xml version="1.0" encoding="UTF-8"?>
<svg width="66px" height="56px" viewBox="0 0 66 56" version="1.1" xmlns="http://www.w3.org/2000/svg" xmlns:xlink="http://www.w3.org/1999/xlink">
    <!-- Generator: Sketch 49.2 (51160) - http://www.bohemiancoding.com/sketch -->
    <title>Group 5</title>
    <desc>Created with Sketch.</desc>
    <defs></defs>
    <g id="Page-1" stroke="none" stroke-width="1" fill="none" fill-rule="evenodd">
        <g id="Portfolio" transform="translate(-691.000000, -6555.000000)">
            <g id="Group-2" transform="translate(382.000000, 6519.000000)">
                <g id="Group-5" transform="translate(309.000000, 36.000000)">
                    <path d="M47.1188738,0 C48.5957605,0 50.5330746,1.04056581 51.2674122,2.24351291 L65.419248,25.3254055 C66.1535856,26.5040507 66.1535856,28.6089319 65.419248,29.8113267 L51.2674122,52.892667 C50.5330746,54.0729691 48.5957605,55.1361799 47.1188738,55.1361799 L18.8498077,55.1361799 C17.374094,55.1361799 15.4361935,54.0729691 14.7006828,52.892667 L0.554712312,29.8113267 C-0.184904104,28.6089319 -0.184904104,26.5040507 0.554712312,25.3254055 L14.7006828,2.24351291 C15.4361935,1.04056581 17.374094,0 18.8498077,0 L47.1188738,0 Z" id="Fill-1" fill="#E9C5B2"></path>
                    <path d="M25.0127834,26.3581656 L29.2164747,26.3581656 L29.2164747,37.568009 L18.0066313,37.568009 L18.0066313,29.0848842 C18.0066313,19.8190439 21.7432084,14.8579804 29.2164747,14.2015449 L29.2164747,18.4052361 C26.4139998,19.1879093 25.0127834,21.434905 25.0127834,25.1462906 L25.0127834,26.3581656 Z M41.8275485,26.3581656 L46.0312398,26.3581656 L46.0312398,37.568009 L34.8213964,37.568009 L34.8213964,29.0848842 C34.8213964,19.8190439 38.5579735,14.8579804 46.0312398,14.2015449 L46.0312398,18.4052361 C43.2287649,19.1879093 41.8275485,21.434905 41.8275485,25.1462906 L41.8275485,26.3581656 Z" id="“" fill="#3D3C4A"></path>
                </g>
            </g>
        </g>
    </g>
</svg>