<?xml version="1.0" encoding="UTF-8"?>
<svg width="157px" height="158px" viewBox="0 0 157 158" version="1.1" xmlns="http://www.w3.org/2000/svg" xmlns:xlink="http://www.w3.org/1999/xlink">
    <!-- Generator: Sketch 49.2 (51160) - http://www.bohemiancoding.com/sketch -->
    <title>Group 6</title>
    <desc>Created with Sketch.</desc>
    <defs></defs>
    <g id="Website" stroke="none" stroke-width="1" fill="none" fill-rule="evenodd" opacity="0.5">
        <g id="Portfolio" transform="translate(-382.000000, -6789.000000)" fill="#F2ECE8">
            <g id="Group-2" transform="translate(382.000000, 6519.000000)">
                <g id="Group-6" transform="translate(0.000000, 270.000000)">
                    <path d="M85.1862078,43.0443188 L76.3791695,58.2961105 L46.5903519,51.2502416 L44.0949578,35.4771851 L77.9294961,24.4986452 L85.1862078,37.0753573 C86.1032911,38.6639357 86.1032911,41.4509434 85.1862078,43.0443188 Z M67.5233587,73.6446401 C66.6038767,75.2260231 64.1852393,76.6275219 62.3526717,76.6275219 L50.5952956,76.6275219 L47.1764217,54.9766452 L74.5561965,61.4524807 L67.5233587,73.6446401 Z M21.8434938,73.6446401 L6.79677083,47.581401 L40.7384488,36.5684833 L47.0572889,76.6275219 L27.0085839,76.6275219 C25.1720186,76.6275219 22.7605771,75.2260231 21.8434938,73.6446401 Z M4.17184966,37.0705604 L21.8434938,6.46943959 C22.7605771,4.88246015 25.1664217,3.48975578 27.0085839,3.48975578 L33.1451267,3.48975578 L26.7271425,37.4415219 L5.00977759,44.4921877 L4.17184966,43.0443188 C3.25476633,41.4509434 3.25476633,38.6639357 4.17184966,37.0705604 Z M67.5233587,6.46943959 L76.1441019,21.4062339 L30.5106109,36.2119126 L36.6959262,3.48975578 L62.3526717,3.48975578 C64.1908361,3.48975578 66.6038767,4.88246015 67.5233587,6.46943959 Z M88.2029082,35.3292802 L70.545656,4.7273599 C69.0217145,2.0754653 65.4189443,0 62.3526717,0 L27.0085839,0 C23.9439105,0 20.345138,2.0754653 18.820397,4.72256298 L1.15434966,35.3292802 C-0.384783221,37.9771774 -0.384783221,42.1369023 1.15434966,44.7887969 L18.820397,75.3899177 C20.3499352,78.0426118 23.9439105,80.1156787 27.0085839,80.1156787 L62.3526717,80.1156787 C65.4133474,80.1156787 69.0169172,78.0426118 70.545656,75.3899177 L88.2029082,44.7887969 C89.7436402,42.1369023 89.7436402,37.9771774 88.2029082,35.3292802 Z" id="Fill-20-Copy"></path>
                    <path d="M152.189006,82.0435193 L136.124457,109.852835 L116.258849,70.6508458 L143.851303,61.648635 L152.189006,76.0809537 C153.098894,77.6647352 153.098894,80.4549409 152.189006,82.0435193 Z M129.345876,115.633118 L108.384085,115.633118 L119.956765,85.6883753 L133.960076,113.315409 C132.847103,114.596985 130.908195,115.633118 129.345876,115.633118 Z M88.8398958,112.64464 L71.1682517,82.0435193 C70.818049,81.4279152 70.6421481,80.6284293 70.5581954,79.7977635 L112.093195,96.3567147 L104.637396,115.633118 L94.0073846,115.633118 C92.1700197,115.633118 89.7521819,114.238015 88.8398958,112.64464 Z M88.843094,45.475036 C89.7521819,43.8864576 92.1700197,42.4905553 94.0073846,42.4905553 L98.0690963,42.4905553 L117.837159,81.4910746 L113.348488,93.0988098 L71.1018891,76.2584396 C71.1298733,76.2008766 71.1394679,76.1281234 71.1682517,76.0809537 L88.843094,45.475036 Z M134.511765,45.475036 L142.065909,58.5546247 L114.659749,67.5040694 L101.988488,42.4905553 L129.345876,42.4905553 C131.177644,42.4905553 133.589885,43.8864576 134.511765,45.475036 Z M137.533263,43.7321568 C136.002925,41.0802622 132.410549,39 129.345876,39 L94.0073846,39 C90.941112,39 87.3487359,41.0802622 85.8175985,43.7273599 L68.1507517,74.3260823 C66.6164161,76.9787763 66.6164161,81.1361028 68.1507517,83.7887969 L85.8136008,114.389918 C87.3383418,117.044211 90.9371143,119.125272 94.0073846,119.125272 L129.345876,119.125272 C132.410549,119.125272 136.007722,117.044211 137.533263,114.389918 L155.210504,83.7887969 C156.735245,81.1361028 156.735245,76.9787763 155.210504,74.3340771 L137.533263,43.7321568 Z" id="Fill-22-Copy"></path>
                    <path d="M85.1890062,120.043519 L69.1244566,147.852835 L49.2588485,108.650846 L76.8513035,99.648635 L85.1890062,114.080954 C86.0988936,115.664735 86.0988936,118.454941 85.1890062,120.043519 Z M62.3458756,153.633118 L41.384085,153.633118 L52.9567652,123.688375 L66.960076,151.315409 C65.847103,152.596985 63.9081954,153.633118 62.3458756,153.633118 Z M21.8398958,150.64464 L4.16825169,120.043519 C3.81804899,119.427915 3.64214809,118.628429 3.55819538,117.797763 L45.0931954,134.356715 L37.6373958,153.633118 L27.0073846,153.633118 C25.1700197,153.633118 22.7521819,152.238015 21.8398958,150.64464 Z M21.843094,83.475036 C22.7521819,81.8864576 25.1700197,80.4905553 27.0073846,80.4905553 L31.0690963,80.4905553 L50.8371593,119.491075 L46.3484882,131.09881 L4.10188908,114.25844 C4.12987331,114.200877 4.13946791,114.128123 4.16825169,114.080954 L21.843094,83.475036 Z M67.5117652,83.475036 L75.0659093,96.5546247 L47.6597494,105.504069 L34.9884882,80.4905553 L62.3458756,80.4905553 C64.1776436,80.4905553 66.5898846,81.8864576 67.5117652,83.475036 Z M70.533263,81.7321568 C69.0029251,79.0802622 65.410549,77 62.3458756,77 L27.0073846,77 C23.941112,77 20.3487359,79.0802622 18.8175985,81.7273599 L1.15075169,112.326082 C-0.383583896,114.978776 -0.383583896,119.136103 1.15075169,121.788797 L18.8136008,152.389918 C20.3383418,155.044211 23.9371143,157.125272 27.0073846,157.125272 L62.3458756,157.125272 C65.410549,157.125272 69.0077224,155.044211 70.533263,152.389918 L88.2105039,121.788797 C89.7352449,119.136103 89.7352449,114.978776 88.2105039,112.334077 L70.533263,81.7321568 Z" id="Fill-22-Copy"></path>
                </g>
            </g>
        </g>
    </g>
</svg>