<?xml version="1.0" encoding="UTF-8"?>
<svg width="74px" height="64px" viewBox="0 0 74 64" version="1.1" xmlns="http://www.w3.org/2000/svg" xmlns:xlink="http://www.w3.org/1999/xlink">
    <!-- Generator: Sketch 49.2 (51160) - http://www.bohemiancoding.com/sketch -->
    <title>icon_lease</title>
    <desc>Created with Sketch.</desc>
    <defs></defs>
    <g id="Page-1" stroke="none" stroke-width="1" fill="none" fill-rule="evenodd">
        <g id="Homepage" transform="translate(-797.000000, -5105.000000)">
            <g id="icon_lease" transform="translate(797.000000, 5105.000000)">
                <g id="Page-1" transform="translate(16.000000, 0.000000)" fill="#F2ECE8">
                    <path d="M45.7833619,3.03469475 C44.7900148,1.33405571 42.4581922,0 40.4689031,0 L17.5305779,0 C15.5407698,0 13.2084282,1.33405571 12.2145621,3.03161852 L0.746956526,22.6543372 C-0.248985509,24.355489 -0.248985509,27.0215496 0.746956526,28.7227013 L12.2119672,48.3469581 C13.2016813,50.0491353 15.5376559,51.3837037 17.5305779,51.3837037 L40.4689031,51.3837037 C42.4581922,51.3837037 44.7931287,50.0491353 45.7833619,48.3469581 L57.2577144,28.7227013 C58.2474285,27.0215496 58.2474285,24.355489 57.2577144,22.6594643 L45.7833619,3.03469475 Z" id="Fill-7"></path>
                </g>
                <g id="house" transform="translate(0.000000, 8.000000)" fill="#3D3C4A" fill-rule="nonzero">
                    <path d="M6.49142475,32.5709091 C6.395445,34.0154545 6.33811115,35.5590909 6.33811115,37.2363636 C6.33811115,45.0078182 8.6526929,49.6485455 12.5310733,49.6485455 C17.4204163,49.6485455 18.7240355,43.7978182 18.7240355,40.3394545 C18.7240355,39.4830909 18.0304049,38.788 17.1758403,38.788 C16.3212758,38.788 15.6276451,39.4830909 15.6276451,40.3394545 C15.6276451,40.4014545 15.494471,46.5454545 12.5310733,46.5454545 C10.7366692,46.5454545 9.43450153,42.6309091 9.43450153,37.2363636 C9.43450153,19.1472727 15.7698911,17.0869091 15.9696524,17.0294545 C16.785571,16.8432727 17.310466,16.038 17.1448147,15.2110909 C16.9791635,14.3716364 16.1694137,13.8256364 15.3241024,13.9947273 C15.0143908,14.0567273 13.8920264,14.3516364 12.5419595,15.5105455 C12.5435924,15.2436364 12.5651833,14.9769091 12.6364878,14.7114545 C12.8502196,13.9109091 13.3625955,13.2421818 14.07945,12.828 C14.7963044,12.4138182 15.6307296,12.3036364 16.4281417,12.5176364 C17.2270053,12.7332727 17.8959607,13.2469091 18.3076394,13.9636364 C19.162204,15.4452727 18.654364,17.3474545 17.1758403,18.2023636 C16.4343105,18.6321818 16.1819328,19.5816364 16.609215,20.3232727 C16.8957028,20.8198182 17.4158804,21.0974545 17.9514801,21.0974545 C18.2147441,21.0974545 18.480911,21.0307273 18.7240355,20.8896364 C21.6812643,19.1767273 22.6969442,15.374 20.9907181,12.4121818 C20.1639133,10.9770909 18.827817,9.95 17.2300898,9.52018182 C15.6292781,9.09036364 13.9616979,9.31236364 12.5310733,10.1407273 C11.0989973,10.9692727 10.0740642,12.3081818 9.64514897,13.9092727 C9.24417494,15.408 9.43450153,16.9641818 10.1622422,18.3807273 C8.83376623,20.5467273 7.59219824,23.7721818 6.90165202,28.5694545 C4.58398587,25.7876364 3.24153934,22.244 3.24153934,18.618 C3.24153934,10.0629091 10.1870989,3.10290909 18.7240355,3.10290909 C27.2609721,3.10290909 34.2065317,10.0630909 34.2065317,18.618 C34.2065317,27.1729091 27.2609721,34.1330909 18.7240355,34.1330909 C17.0426662,34.1330909 15.3890565,33.8647273 13.8114687,33.3370909 C13.0033518,33.0670909 12.1239305,33.5047273 11.8528648,34.3161818 C11.5803476,35.1290909 12.018516,36.0072727 12.8298988,36.2789091 C14.725,36.9134545 16.7082792,37.2361818 18.7240355,37.2361818 C28.9688312,37.2361818 37.3031035,28.8843636 37.3031035,18.618 C37.303285,8.35181818 28.9690126,0 18.724217,0 C8.47942131,0 0.145148969,8.35181818 0.145148969,18.6181818 C0.145148969,23.9089091 2.51561306,29.0505455 6.49142475,32.5709091 Z" id="Shape"></path>
                    <path d="M55.4287624,45.4485455 L39.3486154,29.3345455 C38.7447956,28.7294545 37.7646772,28.7294545 37.159406,29.3345455 C36.5555863,29.9412727 36.5555863,30.9232727 37.159406,31.5283636 L52.7859626,47.1878182 L52.7859626,52.7516364 L47.2338331,52.7516364 L46.5928189,52.1092727 L46.5928189,48.0970909 C46.5928189,47.2407273 45.8991883,46.5456364 45.0446238,46.5456364 L43.4964286,46.5456364 L43.4964286,44.9941818 C43.4964286,44.1378182 42.8027979,43.4427273 41.9482334,43.4427273 L37.945932,43.4427273 L37.3034664,42.7989091 L37.3034664,38.7881818 C37.3034664,37.9318182 36.6098358,37.2367273 35.7552712,37.2367273 L31.7513369,37.2367273 L31.6011077,37.0861818 C30.997288,36.4810909 30.0171696,36.4810909 29.4118984,37.0861818 C28.8080787,37.6929091 28.8080787,38.6749091 29.4118984,39.28 L30.0157181,39.8850909 C30.3052903,40.1767273 30.7000955,40.3396364 31.1103228,40.3396364 L34.2068946,40.3396364 L34.2068946,43.4410909 C34.2068946,43.8521818 34.3694614,44.2463636 34.6590336,44.5365455 L36.2072288,46.0910909 C36.4982525,46.3827273 36.8916062,46.5456364 37.3034664,46.5456364 L40.4000382,46.5456364 L40.4000382,48.0970909 C40.4000382,48.9534545 41.0936688,49.6485455 41.9482334,49.6485455 L43.4964286,49.6485455 L43.4964286,52.7516364 C43.4964286,53.1627273 43.6589954,53.5583636 43.9500191,53.8485455 L45.4982143,55.4 C45.7877865,55.6916364 46.1825917,55.8545455 46.5928189,55.8545455 L54.3341578,55.8545455 C55.1887223,55.8545455 55.8823529,55.1594545 55.8823529,54.3030909 L55.8823529,46.5454545 C55.8823529,46.1343636 55.7197861,45.7387273 55.4287624,45.4485455 Z" id="Shape"></path>
                </g>
            </g>
        </g>
    </g>
</svg>