<?xml version="1.0" encoding="UTF-8"?>
<svg width="80px" height="63px" viewBox="0 0 80 63" version="1.1" xmlns="http://www.w3.org/2000/svg" xmlns:xlink="http://www.w3.org/1999/xlink">
    <!-- Generator: Sketch 49.2 (51160) - http://www.bohemiancoding.com/sketch -->
    <title>icon_purchase</title>
    <desc>Created with Sketch.</desc>
    <defs></defs>
    <g id="Page-1" stroke="none" stroke-width="1" fill="none" fill-rule="evenodd">
        <g id="Homepage" transform="translate(-182.000000, -5104.000000)">
            <g id="icon_purchase" transform="translate(182.000000, 5104.000000)">
                <g id="Page-1-Copy" transform="translate(23.000000, 0.000000)" fill="#F2ECE8">
                    <path d="M44.9939936,3.07109288 C44.0177732,1.35005638 41.7261544,0 39.7711634,0 L17.2283266,0 C15.2728255,0 12.9806967,1.35005638 12.0039662,3.06797976 L0.734077965,22.9260534 C-0.244692655,24.6476088 -0.244692655,27.3456461 0.734077965,29.0672015 L12.001416,48.9268317 C12.9740662,50.6494248 15.2697652,52 17.2283266,52 L39.7711634,52 C41.7261544,52 44.0208334,50.6494248 44.9939936,48.9268317 L56.2705124,29.0672015 C57.2431625,27.3456461 57.2431625,24.6476088 56.2705124,22.931242 L44.9939936,3.07109288 Z" id="Fill-1"></path>
                </g>
                <g id="Group-8" transform="translate(0.000000, 17.000000)" fill="#3D3C4A" fill-rule="nonzero">
                    <path d="M6.30983594,25.66389 C6.47928125,25.7326529 6.65689453,25.766323 6.83322656,25.766323 C7.18861328,25.766323 7.53839453,25.6287973 7.79944922,25.371134 L30.0706172,3.39056357 L52.3337773,25.371134 C52.7232773,25.7569966 53.3108906,25.872866 53.8233906,25.66389 C54.333168,25.454756 54.6666133,24.9625086 54.6666133,24.4174639 L54.6666133,6.88150515 C54.6666133,6.13696907 54.0543359,5.53264605 53.3,5.53264605 C52.5456641,5.53264605 51.9333867,6.13696907 51.9333867,6.88150515 L51.9333867,21.1596838 L31.0411641,0.53224055 C30.5286641,0.0263986254 29.6130508,0.0263986254 29.1005508,0.53224055 L8.20016016,21.1611065 L8.20016016,5.53264605 L15.0335469,5.53264605 C15.7878828,5.53264605 16.4001602,4.92832302 16.4001602,4.18378694 L16.4001602,2.83492784 L19.1335469,2.83492784 L19.1335469,4.18378694 C19.1335469,4.92832302 19.7458242,5.53264605 20.5001602,5.53264605 C21.2544961,5.53264605 21.8667734,4.92832302 21.8667734,4.18378694 L21.8667734,1.48591065 C21.8667734,0.74137457 21.2544961,0.137051546 20.5001602,0.137051546 L15.0333867,0.137051546 C14.2790508,0.137051546 13.6667734,0.74137457 13.6667734,1.48591065 L13.6667734,2.83476976 L6.83338672,2.83476976 C6.07905078,2.83476976 5.46677344,3.43909278 5.46677344,4.18362887 L5.46677344,24.4173058 C5.46661328,24.9623505 5.80005859,25.454756 6.30983594,25.66389 Z" id="Shape"></path>
                    <path d="M34.1666133,24.4174639 C33.4122773,24.4174639 32.8,25.0217869 32.8,25.766323 L32.8,36.5576701 C32.8,37.3022062 33.4122773,37.9065292 34.1666133,37.9065292 L42.3666133,37.9065292 C43.1209492,37.9065292 43.7332266,37.3022062 43.7332266,36.5576701 L43.7332266,25.766323 C43.7332266,25.0217869 43.1209492,24.4174639 42.3666133,24.4174639 L34.1666133,24.4174639 Z M41,35.2086529 L35.5333867,35.2086529 L35.5333867,27.1151821 L41,27.1151821 L41,35.2086529 Z" id="Shape"></path>
                    <path d="M72.6333867,43.3021237 L65.6,43.3021237 L65.6,37.770268 C68.7145586,37.1430241 71.0666133,34.4195395 71.0666133,31.1619175 C71.0666133,30.9866117 70.9887773,13.6261168 64.2332266,13.6261168 C57.4778359,13.6261168 57.3998398,30.9866117 57.3998398,31.1619175 C57.3998398,34.4195395 59.7518945,37.1430241 62.8664531,37.770268 L62.8664531,43.3021237 L51.9330664,43.3021237 L51.9330664,27.7896907 C51.9330664,27.0451546 51.3207891,26.4408316 50.5664531,26.4408316 C49.8121172,26.4408316 49.1998398,27.0451546 49.1998398,27.7896907 L49.1998398,43.3021237 L30.0666133,43.3021237 L30.0666133,25.766323 C30.0666133,25.0217869 29.4543359,24.4174639 28.7,24.4174639 L17.7666133,24.4174639 C17.0122773,24.4174639 16.4,25.0217869 16.4,25.766323 L16.4,43.3021237 L10.9333867,43.3021237 L10.9333867,27.7896907 C10.9333867,27.0451546 10.3211094,26.4408316 9.56677344,26.4408316 C8.8124375,26.4408316 8.2,27.0451546 8.2,27.7896907 L8.2,43.3021237 L1.36661328,43.3021237 C0.612277344,43.3021237 0,43.9064467 0,44.6509828 C0,45.3955189 0.612277344,46 1.36661328,46 L72.6332266,46 C73.3875625,46 73.9998398,45.395677 73.9998398,44.6511409 C73.9998398,43.9066048 73.3877227,43.3021237 72.6333867,43.3021237 Z M27.3333867,33.8597938 L25.9667734,33.8597938 C25.2124375,33.8597938 24.6001602,34.4641168 24.6001602,35.2086529 C24.6001602,35.953189 25.2124375,36.557512 25.9667734,36.557512 L27.3333867,36.557512 L27.3333867,43.3021237 L19.1333867,43.3021237 L19.1333867,27.1151821 L27.3333867,27.1151821 L27.3333867,33.8597938 Z M60.1333867,31.1619175 C60.1333867,24.4416495 61.9620508,16.3238351 64.2333867,16.3238351 C66.5047227,16.3238351 68.3333867,24.4416495 68.3333867,31.1619175 C68.3333867,33.3929966 66.493832,35.2086529 64.2333867,35.2086529 C61.9729414,35.2086529 60.1333867,33.3929966 60.1333867,31.1619175 Z" id="Shape"></path>
                </g>
            </g>
        </g>
    </g>
</svg>