<?xml version="1.0" encoding="UTF-8"?>
<svg width="106px" height="106px" viewBox="0 0 106 106" version="1.1" xmlns="http://www.w3.org/2000/svg" xmlns:xlink="http://www.w3.org/1999/xlink">
    <!-- Generator: Sketch 50.2 (55047) - http://www.bohemiancoding.com/sketch -->
    <title>Group 82</title>
    <desc>Created with Sketch.</desc>
    <defs></defs>
    <g id="Website" stroke="none" stroke-width="1" fill="none" fill-rule="evenodd">
        <g id="Homepage" transform="translate(-668.000000, -41.000000)">
            <g id="Group-82" transform="translate(668.000000, 41.000000)">
                <path d="M93.8112045,35.27445 C94.6257212,34.88345 95.0482862,34.00345 94.6402751,33.15945 L93.9457026,31.72345 L90.9380632,33.16995 L91.6321338,34.60445 C92.0411487,35.44845 92.9946803,35.66695 93.8112045,35.27445" id="Fill-2" fill="#42423C"></path>
                <path d="M46.3286933,49.21855 C48.5745112,45.25655 50.0113327,40.98155 50.3004033,36.31805 C47.7203476,40.41255 44.6364257,44.39605 46.3286933,49.21855" id="Fill-4" fill="#42423C"></path>
                <path d="M96.1411338,55.87745 C94.5562639,55.65895 92.9192007,56.52095 92.6793123,58.24995 C92.4389219,59.97945 93.7808922,61.25245 95.3657621,61.46995 C96.9486245,61.68745 98.5886989,60.82545 98.8285874,59.09645 C99.067974,57.36845 97.725,56.09545 96.1411338,55.87745" id="Fill-6" fill="#42423C"></path>
                <path d="M58.850671,9.0674 C58.928961,8.1684 58.3839424,7.3594 57.4479758,7.2799 L55.8540725,7.1429 L55.5690167,10.4589 L57.1639238,10.5939 C58.1008941,10.6734 58.7753922,9.9669 58.850671,9.0674" id="Fill-8" fill="#42423C"></path>
                <path d="M10.1929071,53.44875 C11.7888178,53.52825 13.3460855,52.52675 13.4324052,50.78325 C13.5187249,49.03925 12.0708625,47.88875 10.4734461,47.81075 C8.87753532,47.73125 7.3197658,48.73275 7.23194052,50.47675 C7.14662454,52.22025 8.59498885,53.37175 10.1929071,53.44875" id="Fill-10" fill="#42423C"></path>
                <path d="M44.2840204,59.02125 C45.7514554,64.50725 51.920303,63.35175 56.9780353,63.62275 C53.0354331,60.86975 49.0351171,59.47075 44.2840204,59.02125" id="Fill-12" fill="#42423C"></path>
                <path d="M14.3597398,73.77735 C13.5833643,74.23935 13.2405948,75.15285 13.7218773,75.95635 L14.5409108,77.32535 L17.4060223,75.62035 L16.5874907,74.25235 C16.1062082,73.44835 15.1381227,73.31535 14.3597398,73.77735" id="Fill-14" fill="#42423C"></path>
                <path d="M53.1322416,95.11625 C52.1912565,95.13075 51.5915353,95.90325 51.6080967,96.80625 C51.6216468,97.70675 52.2469628,98.45875 53.1869442,98.44325 L54.7868699,98.41725 L54.7321673,95.09075 L53.1322416,95.11625 Z" id="Fill-16" fill="#42423C"></path>
                <path d="M66.4207082,36.16215 C64.8418606,38.21215 63.0246301,39.99165 61.2746487,42.01915 C59.4458755,44.13915 59.4880316,46.45265 59.1834033,48.87715 C62.7892584,45.50015 65.6222509,40.87865 66.4207082,36.16215" id="Fill-18" fill="#42423C"></path>
                <path d="M41.7080799,55.7659 C43.0229498,54.2134 44.2279126,52.6119 45.2898457,50.9534 C41.9725595,43.8509 47.313842,39.0309 50.4103104,32.8209 C50.7721506,32.0924 51.9414814,32.2949 51.978619,33.1309 C52.3449758,41.0984 49.5727082,48.0884 44.9887305,54.2869 C45.9161654,53.9474 46.859158,53.6639 47.8177082,53.4494 C50.0630242,52.9454 52.3660539,52.6269 54.6465,52.2234 C54.6630613,52.2129 54.6761097,52.2004 54.6936747,52.1904 C55.5398086,51.7204 56.3728941,51.1724 57.1823922,50.5624 C57.8257751,47.9879 57.2195297,44.8564 58.7507007,42.5879 C61.1500874,39.0364 64.5888234,36.5714 66.7277454,32.7619 C67.1096599,32.0789 68.274474,32.2004 68.2960539,33.0719 C68.4651803,39.8274 64.3649944,46.8809 58.9670019,51.2739 C59.8482658,51.0264 60.7184888,50.7394 61.5716487,50.3929 C65.6914071,48.7219 69.2817045,46.3469 72.8193067,43.7274 C72.7460353,43.4804 72.7003662,43.2214 72.7028755,42.9504 C72.7093996,42.2354 72.7420204,41.4474 73.2850316,40.9014 C73.7096041,40.4759 74.2777082,40.1979 74.8924851,40.2064 C76.0989535,40.2244 77.4198457,40.9949 77.7952361,42.1239 C78.2117788,42.8064 78.3061283,43.6124 77.7545855,44.3779 C77.1262584,45.2519 75.8756264,45.6294 74.8412955,45.4814 C74.4428197,45.4249 74.0885074,45.2719 73.7823736,45.0599 C71.1902732,46.9534 68.6458494,48.5329 66.0271506,49.8414 C67.5502918,51.0989 69.190868,52.1999 70.8204033,53.3149 C71.3729498,52.7164 72.2767974,52.4264 73.0782658,52.5959 C73.8566487,52.7604 74.3896227,53.3009 74.6430613,54.0004 C75.1910911,54.5554 75.3968532,55.3644 75.0606078,56.1179 C74.9737862,56.8939 74.4367974,57.5374 73.6037119,57.7609 C71.8567416,58.2304 70.3024851,56.5899 70.2618346,54.9219 C68.2820019,53.5559 66.2590093,52.2474 64.4387677,50.6684 C64.4207007,50.6529 64.4081543,50.6354 64.3920948,50.6194 C61.6077825,51.8764 58.7095483,52.8489 55.5518532,53.5844 C55.4439535,53.6324 55.3375595,53.6574 55.2336747,53.6609 C54.1867974,53.8984 53.111816,54.1104 52.0022063,54.2989 C48.752671,54.8504 45.7465372,55.8764 42.95821,57.2774 C49.7363141,57.6594 55.1152361,59.6849 60.5679312,64.3074 C61.3372807,64.9569 60.5051989,65.9639 59.6660911,65.6719 C53.4084145,63.5009 44.5124665,67.6334 42.5772993,58.9029 C41.8977825,58.8709 41.2072249,58.8499 40.4935818,58.8509 C40.3987305,58.8509 40.3134145,58.8339 40.233619,58.8099 C36.2207565,61.3159 32.7057379,64.6379 29.6418903,68.5089 C28.9774294,69.3474 27.7293067,68.2659 28.3872435,67.4349 C31.8922249,63.0039 36.4691766,58.5424 41.7080799,55.7659 M53.1695297,85.2959 C71.1676896,85.2959 85.8109238,70.7074 85.8109238,52.7759 C85.8109238,34.8444 71.1676896,20.2559 53.1695297,20.2559 C35.1718717,20.2559 20.5291394,34.8444 20.5291394,52.7759 C20.5291394,70.7074 35.1718717,85.2959 53.1695297,85.2959" id="Fill-20" fill="#42423C"></path>
                <polygon id="Fill-22" fill="#42423C" points="44.8594015 96.627 46.6706097 93.1905 44.441855 92.7715"></polygon>
                <path d="M12.6816245,76.5757 C11.7787807,75.0672 12.3358439,73.4142 13.6667732,72.6222 C14.676513,72.0217 15.9115874,72.0497 16.8495613,72.7482 L18.3129814,69.9812 L19.1019033,71.2977 L17.7539108,73.8447 L18.4469777,75.0012 L20.5663271,73.7412 L21.2583903,74.8987 L14.1942268,79.0987 L12.6816245,76.5757 Z M7.44523048,63.8077 L10.9145799,63.1057 L10.2360669,59.7882 L6.76721933,60.4912 L6.49772119,59.1712 L14.5635948,57.5347 L14.8330929,58.8557 L11.4229628,59.5467 L12.1004721,62.8647 L15.5116059,62.1727 L15.7801004,63.4927 L7.71573234,65.1282 L7.44523048,63.8077 Z M6.02296283,50.4167 C6.15545353,47.7847 8.31194052,46.2847 10.5427026,46.3952 C12.7749703,46.5042 14.7743755,48.2107 14.6418848,50.8432 C14.5108996,53.4757 12.3534089,54.9747 10.122145,54.8647 C7.89037918,54.7547 5.8919777,53.0487 6.02296283,50.4167 Z M7.74433829,40.5632 L12.9837435,42.1607 C13.8840781,42.4352 14.8340967,42.0637 15.1166431,41.1457 C15.40471,40.2047 14.8270706,39.3667 13.9262342,39.0922 L8.68733086,37.4932 L9.0832974,36.2062 L14.3232045,37.8037 C15.852368,38.2697 16.8053978,39.7737 16.2739294,41.4987 C15.7545056,43.1902 14.1164387,43.9157 12.5882788,43.4487 L7.34837175,41.8507 L7.74433829,40.5632 Z M11.9945799,29.7392 C12.7197658,28.4532 14.1912156,27.9747 15.5231487,28.7197 L14.8606952,29.8937 C14.1540781,29.4982 13.4424424,29.6367 13.0680558,30.2997 C12.7393383,30.8812 12.7699517,31.5432 13.3746914,31.8817 C13.9578513,32.2092 14.5234461,31.8542 15.0172751,31.4322 C16.0445799,30.5432 17.270119,29.4702 18.6432045,30.2402 C20.1181673,31.0662 20.2622007,32.6252 19.5134275,33.9527 C18.7822193,35.2482 17.2139108,35.9012 15.6054535,35.0007 L16.2679071,33.8257 C17.2003606,34.3487 18.062052,34.0652 18.5157323,33.2587 C18.8851004,32.6052 18.758632,31.8492 18.1137435,31.4882 C17.3865502,31.0812 16.7878327,31.5907 16.3376654,31.9837 C15.1387249,33.0322 14.1460483,33.8592 12.7122379,33.0557 C11.5238364,32.3902 11.3220892,30.9332 11.9945799,29.7392 Z M19.1686506,20.3152 L20.0840409,21.1047 L17.8628141,23.6657 L19.6243383,25.1827 L21.8475725,22.6222 L22.7639665,23.4112 L20.5417361,25.9727 L22.2580929,27.4507 L24.4803234,24.8892 L25.3977212,25.6782 L22.2902119,29.2592 L16.062145,23.8967 L19.1686506,20.3152 Z M53.1695799,18.7557 C71.9978141,18.7557 87.3165502,34.0172 87.3165502,52.7757 C87.3165502,71.5347 71.9978141,86.7957 53.1695799,86.7957 C34.3413457,86.7957 19.0236134,71.5347 19.0236134,52.7757 C19.0236134,34.0172 34.3413457,18.7557 53.1695799,18.7557 Z M37.3640409,11.2072 C38.5569591,11.2072 39.5250446,12.1722 39.5250446,13.3622 C39.5250446,14.5517 38.5569591,15.5162 37.3640409,15.5162 C36.1681115,15.5162 35.2015316,14.5517 35.2015316,13.3622 C35.2015316,12.1722 36.1681115,11.2072 37.3640409,11.2072 Z M54.6094126,5.8272 L57.549803,6.0767 C59.308316,6.2262 60.3316059,7.6427 60.1996171,9.1822 C60.0661227,10.7232 58.8185019,11.9457 57.0609926,11.7957 L55.4670892,11.6607 L55.2573123,14.1122 L53.9103234,13.9972 L54.6094126,5.8272 Z M65.6206952,7.5237 L66.5380929,7.7817 L67.0314201,16.4452 L65.6618476,16.0587 L65.6081487,14.9602 L62.6321264,14.1197 L62.0068104,15.0267 L60.6387435,14.6402 L65.6206952,7.5237 Z M72.6743197,10.0367 L73.884803,10.6352 L70.7612342,16.8942 L73.0331487,18.0207 L72.4951561,19.1002 L69.0112528,17.3747 L72.6743197,10.0367 Z M79.7776283,13.8627 L80.7833532,14.6737 L78.9751561,21.0652 L84.865974,17.9697 L85.8706952,18.7802 L80.691513,25.1487 L79.6416245,24.3012 L82.8459926,20.3612 L78.0427026,23.0122 L77.2477584,22.3702 L78.8537063,17.1412 L75.650342,21.0807 L74.6004535,20.2337 L79.7776283,13.8627 Z M91.9978885,26.1022 L91.0393383,26.8362 L88.969171,24.1557 L87.125342,25.5677 L89.1945056,28.2497 L88.2359554,28.9847 L86.1657881,26.3037 L84.3671264,27.6807 L86.4372937,30.3622 L85.4787435,31.0972 L82.585026,27.3477 L89.104171,22.3527 L91.9978885,26.1022 Z M95.7312156,32.6352 C96.4980558,34.2177 95.7969591,35.8157 94.3982788,36.4882 C93.3398587,36.9972 92.1108067,36.8587 91.2380743,36.0817 L89.5327584,38.7087 L88.8642825,37.3262 L90.4356022,34.9072 L89.8464201,33.6932 L87.6231859,34.7632 L87.0360112,33.5487 L94.4494684,29.9867 L95.7312156,32.6352 Z M99.7942639,45.8202 L96.2762342,46.2127 L96.6526283,49.5772 L100.171662,49.1862 L100.322721,50.5247 L92.1399145,51.4347 L91.9908625,50.0967 L95.4501747,49.7112 L95.0737807,46.3452 L91.612461,46.7312 L91.4644126,45.3912 L99.6442082,44.4817 L99.7942639,45.8202 Z M100.026625,59.2622 C99.6647844,61.8737 97.3838364,63.1777 95.1696357,62.8737 C92.9574424,62.5687 91.1166245,60.6952 91.4794684,58.0852 C91.8408067,55.4737 94.1227584,54.1677 96.3369591,54.4732 C98.5496543,54.7782 100.390472,56.6507 100.026625,59.2622 Z M97.4229814,68.9312 L92.3527026,66.8742 C91.4814758,66.5222 90.5018476,66.8067 90.1395056,67.6962 C89.7671264,68.6067 90.2679814,69.4917 91.1382045,69.8452 L96.209487,71.9012 L95.7011041,73.1477 L90.6293197,71.0922 C89.1493383,70.4922 88.336829,68.9112 89.0178513,67.2422 C89.6873309,65.6047 91.3811041,65.0272 92.8605836,65.6277 L97.9328699,67.6827 L97.4229814,68.9312 Z M92.2086691,79.3642 C91.3705651,80.5802 89.8629814,80.9277 88.6023123,80.0657 L89.3691524,78.9562 C90.0366245,79.4132 90.7587993,79.3377 91.1903978,78.7112 C91.5693011,78.1612 91.5979071,77.4982 91.02629,77.1067 C90.4737435,76.7307 89.8795428,77.0342 89.3510855,77.4097 C88.2474981,78.2042 86.930119,79.1632 85.6323123,78.2757 C84.2366431,77.3212 84.2326283,75.7567 85.0963271,74.5012 C85.942461,73.2757 87.5614572,72.7657 89.0815874,73.8052 L88.3182602,74.9152 C87.4349888,74.3122 86.5527212,74.5177 86.0272751,75.2802 C85.6032045,75.8987 85.6609182,76.6632 86.2706766,77.0802 C86.9597286,77.5497 87.6016059,77.0937 88.0848959,76.7437 C89.3716617,75.8067 90.4356022,75.0697 91.7911227,75.9977 C92.9152862,76.7667 92.987052,78.2347 92.2086691,79.3642 Z M84.2356394,88.0907 L83.3935204,87.2257 L85.8335576,84.8712 L84.2140595,83.2062 L81.7755279,85.5607 L80.9324052,84.6937 L83.3729442,82.3402 L81.7951004,80.7177 L79.3545613,83.0712 L78.5124424,82.2052 L81.9225725,78.9142 L87.6457695,84.8007 L84.2356394,88.0907 Z M69.7946543,94.5882 C68.6007323,94.5882 67.6331487,93.6252 67.6331487,92.4352 C67.6331487,91.2452 68.6007323,90.2812 69.7946543,90.2812 C70.9885762,90.2812 71.9576654,91.2452 71.9576654,92.4352 C71.9576654,93.6252 70.9885762,94.5882 69.7946543,94.5882 Z M53.2067175,99.6492 C51.4431859,99.6787 50.2798773,98.3742 50.2552862,96.8272 C50.2296914,95.2812 51.3483346,93.9397 53.1118662,93.9102 L54.7102862,93.8832 L54.6701375,91.4232 L56.0216431,91.4012 L56.157145,99.6017 L53.2067175,99.6492 Z M44.9170149,98.9142 L43.982052,98.7382 L42.7118476,90.1572 L44.1095242,90.4207 L44.2625911,91.5097 L47.2993383,92.0817 L47.840342,91.1217 L49.2370149,91.3847 L44.9170149,98.9142 Z M37.6777026,97.0547 L36.4180372,96.5652 L38.9714944,90.0507 L36.6062342,89.1302 L37.0443569,88.0057 L40.6707881,89.4167 L37.6777026,97.0547 Z M30.240658,93.8712 L29.167684,93.1522 L30.4027584,86.6212 L24.8055279,90.2287 L23.7325539,89.5082 L28.3285762,82.7032 L29.4507323,83.4552 L26.6072007,87.6647 L31.1580558,84.5997 L32.006197,85.1692 L30.8719963,90.5237 L33.7145242,86.3147 L34.8366803,87.0662 L30.240658,93.8712 Z M16.9730186,82.7577 L17.8628141,81.9397 L20.165342,84.4307 L21.8786877,82.8582 L19.5751561,80.3682 L20.4664572,79.5497 L22.7699888,82.0412 L24.4381673,80.5077 L22.1346357,78.0192 L23.0264387,77.2012 L26.2443569,80.6817 L20.1919405,86.2377 L16.9730186,82.7577 Z M53.1695799,105.0937 C82.1714944,105.0937 105.682071,81.6702 105.682071,52.7757 C105.682071,23.8817 82.1714944,0.4582 53.1695799,0.4582 C24.1686691,0.4582 0.657591078,23.8817 0.657591078,52.7757 C0.657591078,81.6702 24.1686691,105.0937 53.1695799,105.0937 Z" id="Fill-24" fill="#42423C"></path>
                <path d="M55.854223,7.1431 L57.4481264,7.2796 C58.3840929,7.3596 58.9291115,8.1686 58.8508216,9.0676 C58.7750409,9.9666 58.1010446,10.6736 57.1635725,10.5936 L55.5691673,10.4591 L55.854223,7.1431 Z M55.46729,11.6606 L57.0606914,11.7961 C58.8182007,11.9456 60.0663234,10.7231 60.199316,9.1821 C60.3318067,7.6426 59.3085167,6.2261 57.5500037,6.0766 L54.6096134,5.8271 L53.9105242,13.9971 L55.257513,14.1121 L55.46729,11.6606 Z" id="Fill-55" fill="#FEFEFE"></path>
                <path d="M65.4728476,9.80765 L65.5426059,13.68765 L63.3585167,13.06915 L65.4728476,9.80765 Z M62.6323271,14.11965 L65.6083494,14.96015 L65.6620483,16.05865 L67.031119,16.44515 L66.5382937,7.78165 L65.6208959,7.52415 L60.6384424,14.64015 L62.0070112,15.02665 L62.6323271,14.11965 Z" id="Fill-56" fill="#FEFEFE"></path>
                <polygon id="Fill-57" fill="#FEFEFE" points="73.0330985 18.02055 70.761184 16.89405 73.8847528 10.63505 72.6742695 10.03655 69.0112026 17.37455 72.4951059 19.10005"></polygon>
                <polygon id="Fill-58" fill="#FEFEFE" points="78.8534554 17.14115 77.2480093 22.37015 78.0429535 23.01215 82.8457416 20.36115 79.6413736 24.30115 80.6912621 25.14915 85.8704442 18.78015 84.865723 17.96965 78.9749052 21.06565 80.7836041 14.67365 79.7778792 13.86265 74.6002026 20.23415 75.6500911 21.08065"></polygon>
                <polygon id="Fill-59" fill="#FEFEFE" points="85.4785929 31.0972 86.4371431 30.3622 84.3669758 27.6807 86.1656375 26.3037 88.2358048 28.9847 89.194355 28.2497 87.1251914 25.5677 88.9690204 24.1557 91.0391877 26.8367 91.9977379 26.1022 89.1045223 22.3527 82.5848755 27.3477"></polygon>
                <path d="M93.9455019,31.72365 L94.6405762,33.15915 C95.0480855,34.00365 94.6255204,34.88315 93.8110037,35.27465 C92.9944796,35.66715 92.040948,35.44815 91.6324349,34.60465 L90.9383643,33.17015 L93.9455019,31.72365 Z M87.6230855,34.76315 L89.8463197,33.69315 L90.4355019,34.90715 L88.8641822,37.32615 L89.532658,38.70865 L91.237974,36.08165 C92.1107063,36.85915 93.3397584,36.99715 94.3981784,36.48815 C95.7968587,35.81615 96.4979554,34.21765 95.7316171,32.63515 L94.449368,29.98665 L87.0359108,33.54865 L87.6230855,34.76315 Z" id="Fill-60" fill="#FEFEFE"></path>
                <polygon id="Fill-61" fill="#FEFEFE" points="91.6126115 46.731 95.0734294 46.3455 95.4498234 49.7115 91.991013 50.0965 92.1400651 51.4345 100.32237 50.525 100.171812 49.186 96.6527788 49.577 96.2763848 46.213 99.7944145 45.8205 99.6443587 44.4815 91.4645632 45.391"></polygon>
                <path d="M98.8288383,59.0967 C98.588448,60.8252 96.9488755,61.6877 95.366013,61.4697 C93.7806413,61.2527 92.4391729,59.9797 92.6790613,58.2502 C92.9194517,56.5212 94.556013,55.6587 96.1413848,55.8777 C97.7252509,56.0952 99.0682249,57.3687 98.8288383,59.0967 M96.3371097,54.4732 C94.1229089,54.1677 91.8409572,55.4737 91.4791171,58.0852 C91.1167751,60.6952 92.9575929,62.5687 95.1697862,62.8737 C97.383987,63.1777 99.6649349,61.8737 100.026775,59.2622 C100.390121,56.6507 98.549303,54.7782 96.3371097,54.4732" id="Fill-62" fill="#FEFEFE"></path>
                <path d="M89.018052,67.2422 C88.3370297,68.9112 89.149539,70.4922 90.6295204,71.0922 L95.700803,73.1477 L96.2096877,71.9012 L91.1384052,69.8452 C90.2676803,69.4917 89.7668253,68.6067 90.1392045,67.6962 C90.5020483,66.8067 91.4811747,66.5222 92.3529033,66.8742 L97.4231822,68.9312 L97.9330706,67.6827 L92.8602825,65.6277 C91.3813048,65.0272 89.6875316,65.6047 89.018052,67.2422" id="Fill-63" fill="#FEFEFE"></path>
                <path d="M91.7910223,75.9976 C90.4355019,75.0701 89.3720632,75.8066 88.0847955,76.7436 C87.6015056,77.0936 86.9596283,77.5496 86.2705762,77.0801 C85.6608178,76.6631 85.6031041,75.8986 86.0276766,75.2801 C86.5526208,74.5176 87.4348885,74.3121 88.3181599,74.9151 L89.0819888,73.8051 C87.5613569,72.7656 85.9423606,73.2761 85.0962268,74.5011 C84.2325279,75.7571 84.2365428,77.3211 85.6327138,78.2761 C86.9300186,79.1631 88.2473978,78.2041 89.351487,77.4096 C89.8794424,77.0341 90.4736431,76.7306 91.0266914,77.1071 C91.5978067,77.4981 91.5697026,78.1611 91.1902974,78.7116 C90.7586989,79.3381 90.0365242,79.4131 89.369052,78.9561 L88.6022119,80.0661 C89.862881,80.9276 91.3704647,80.5801 92.2085688,79.3641 C92.9869517,78.2351 92.9151859,76.7666 91.7910223,75.9976" id="Fill-64" fill="#FEFEFE"></path>
                <polygon id="Fill-65" fill="#FEFEFE" points="78.512342 82.2051 79.354461 83.0711 81.795 80.7176 83.3733457 82.3406 80.9323048 84.6941 81.7754275 85.5606 84.2139591 83.2061 85.8334572 84.8711 83.3939219 87.2256 84.235539 88.0906 87.6456691 84.8006 81.9224721 78.9141"></polygon>
                <path d="M53.1870948,98.4434 C52.2471134,98.4584 51.6217974,97.7064 51.6082472,96.8064 C51.591184,95.9034 52.1914071,95.1309 53.1323922,95.1164 L54.731816,95.0909 L54.7870204,98.4169 L53.1870948,98.4434 Z M54.6700874,91.4234 L54.7102361,93.8834 L53.111816,93.9104 C51.3482844,93.9394 50.2296413,95.2814 50.2552361,96.8274 C50.2798271,98.3739 51.4431357,99.6789 53.2066673,99.6494 L56.1570948,99.6014 L56.0215929,91.4014 L54.6700874,91.4234 Z" id="Fill-66" fill="#FEFEFE"></path>
                <path d="M44.8594015,96.627 L44.441855,92.7715 L46.6706097,93.1905 L44.8594015,96.627 Z M47.2989368,92.0815 L44.2626914,91.51 L44.1096245,90.421 L42.711948,90.1575 L43.9821524,98.7385 L44.9171152,98.914 L49.2371152,91.385 L47.8399405,91.1215 L47.2989368,92.0815 Z" id="Fill-67" fill="#FEFEFE"></path>
                <polygon id="Fill-68" fill="#FEFEFE" points="36.606184 89.1304 38.9714442 90.0509 36.417987 96.5649 37.6776524 97.0549 40.6712398 89.4164 37.0443067 88.0059"></polygon>
                <polygon id="Fill-69" fill="#FEFEFE" points="30.8720465 90.52345 32.0062472 85.16895 31.1581059 84.59945 26.6072509 87.66445 29.4507825 83.45495 28.3286264 82.70295 23.7321022 89.50845 24.8055781 90.22845 30.4023067 86.62095 29.1677342 93.15245 30.2407082 93.87095 34.8367305 87.06645 33.7145743 86.31445"></polygon>
                <polygon id="Fill-70" fill="#FEFEFE" points="23.0265892 77.2012 22.1347862 78.0192 24.4383178 80.5077 22.7696375 82.0412 20.4661059 79.5497 19.5753067 80.3682 21.8788383 82.8582 20.1654926 84.4307 17.8629647 81.9397 16.9726673 82.7577 20.1920911 86.2377 26.2445074 80.6817"></polygon>
                <path d="M14.5410613,77.32525 L13.721526,75.95675 C13.2402435,75.15275 13.5835149,74.23925 14.3598903,73.77725 C15.1377714,73.31525 16.1063587,73.44825 16.5876413,74.25225 L17.4061729,75.62025 L14.5410613,77.32525 Z M20.5663773,73.74125 L18.4470279,75.00125 L17.753961,73.84475 L19.1019535,71.29775 L18.3130316,69.98125 L16.8496115,72.74825 C15.9111357,72.04975 14.6765632,72.02175 13.6668234,72.62225 C12.3353922,73.41425 11.7788309,75.06725 12.6816747,76.57575 L14.194277,79.09875 L21.2584405,74.89825 L20.5663773,73.74125 Z" id="Fill-71" fill="#FEFEFE"></path>
                <polygon id="Fill-72" fill="#FEFEFE" points="15.5114554 62.1729 12.1003216 62.8649 11.4233141 59.5469 14.8329424 58.8554 14.5634442 57.5349 6.49757063 59.1714 6.76706877 60.4914 10.2359164 59.7879 10.9144294 63.1054 7.44558178 63.8079 7.71608364 65.1284 15.7799498 63.4929"></polygon>
                <path d="M10.4732454,47.8106 C12.0711636,47.8886 13.5185242,49.0391 13.4322045,50.7831 C13.3463866,52.5271 11.7886171,53.5286 10.1927063,53.4486 C8.59528996,53.3716 7.14642379,52.2201 7.23173978,50.4766 C7.32006691,48.7331 8.87733457,47.7316 10.4732454,47.8106 M10.1224461,54.8646 C12.3532082,54.9746 14.5106989,53.4756 14.6421859,50.8431 C14.7741747,48.2106 12.7747695,46.5046 10.5430037,46.3951 C8.31173978,46.2846 6.15525279,47.7846 6.02326394,50.4166 C5.89177695,53.0491 7.8906803,54.7551 10.1224461,54.8646" id="Fill-73" fill="#FEFEFE"></path>
                <path d="M16.2740297,41.49855 C16.8054981,39.77405 15.8524684,38.26955 14.3233048,37.80355 L9.08339777,36.20605 L8.68743123,37.49305 L13.9263346,39.09255 C14.827171,39.36655 15.4048104,40.20455 15.1162416,41.14555 C14.834197,42.06355 13.8841784,42.43505 12.983342,42.16055 L7.74443866,40.56305 L7.34847212,41.85055 L12.5883792,43.44855 C14.116539,43.91555 15.7546059,43.19005 16.2740297,41.49855" id="Fill-74" fill="#FEFEFE"></path>
                <path d="M12.7120372,33.0557 C14.1458476,33.8592 15.139026,33.0322 16.3379665,31.9837 C16.787632,31.5907 17.3863494,31.0812 18.1140446,31.4882 C18.7589331,31.8492 18.8854015,32.6052 18.5155316,33.2587 C18.0618513,34.0652 17.2001599,34.3487 16.2682082,33.8257 L15.6057546,35.0007 C17.2142119,35.9012 18.7825204,35.2482 19.5137286,33.9527 C20.2625019,32.6252 20.1184684,31.0662 18.6430037,30.2402 C17.2699182,29.4702 16.044881,30.5432 15.0175762,31.4322 C14.5232454,31.8542 13.9576506,32.2092 13.3744907,31.8817 C12.7697509,31.5432 12.7396394,30.8812 13.067855,30.2997 C13.4422416,29.6367 14.1538773,29.4982 14.8604944,29.8937 L15.5234498,28.7197 C14.1910149,27.9747 12.7200669,28.4532 11.9943792,29.7392 C11.3218885,30.9332 11.5241375,32.3902 12.7120372,33.0557" id="Fill-75" fill="#FEFEFE"></path>
                <polygon id="Fill-76" fill="#FEFEFE" points="25.397671 25.67825 24.4802732 24.88925 22.2580428 27.45075 20.5416859 25.97275 22.7639164 23.41125 21.8475223 22.62225 19.6242881 25.18275 17.8627639 23.66575 20.0839907 21.10475 19.1686004 20.31475 16.0620948 23.89675 22.2906636 29.25925"></polygon>
                <path d="M37.3638401,15.51615 C38.5567584,15.51615 39.5253457,14.55165 39.5253457,13.36215 C39.5253457,12.17265 38.5567584,11.20715 37.3638401,11.20715 C36.1679108,11.20715 35.2013309,12.17265 35.2013309,13.36215 C35.2013309,14.55165 36.1679108,15.51615 37.3638401,15.51615" id="Fill-77" fill="#FEFEFE"></path>
                <path d="M69.7945037,90.2813 C68.6005818,90.2813 67.6329981,91.2453 67.6329981,92.4353 C67.6329981,93.6248 68.6005818,94.5883 69.7945037,94.5883 C70.9884257,94.5883 71.9580167,93.6248 71.9580167,92.4353 C71.9580167,91.2453 70.9884257,90.2813 69.7945037,90.2813" id="Fill-78" fill="#FEFEFE"></path>
                <path d="M50.3004535,36.31815 C50.0113829,40.98165 48.5745613,45.25665 46.3287435,49.21865 C44.6364758,44.39615 47.7203978,40.41215 50.3004535,36.31815 M61.2745985,42.01915 C63.0245799,39.99165 64.8418104,38.21215 66.420658,36.16215 C65.6222007,40.87865 62.7892082,45.50015 59.1833532,48.87715 C59.4879814,46.45265 59.4458253,44.13915 61.2745985,42.01915 M44.284171,59.02115 C49.0352677,59.47065 53.0355836,60.86965 56.9781859,63.62265 C51.9204535,63.35165 45.7516059,64.50715 44.284171,59.02115 M29.6419405,68.50865 C32.7052862,64.63765 36.2208067,61.31615 40.2331673,58.80965 C40.3134647,58.83415 40.3987807,58.85115 40.493632,58.85115 C41.2072751,58.85015 41.8978327,58.87065 42.5773494,58.90315 C44.5125167,67.63315 53.4084647,63.50115 59.6661413,65.67215 C60.5052491,65.96415 61.3373309,64.95715 60.5679814,64.30715 C55.1152862,59.68465 49.7363643,57.65965 42.9582602,57.27715 C45.7465874,55.87615 48.7527212,54.85015 52.0022565,54.29865 C53.1118662,54.11015 54.1868476,53.89815 55.2337249,53.66115 C55.3376097,53.65715 55.4440037,53.63215 55.5519033,53.58415 C58.7095985,52.84865 61.6078327,51.87615 64.392145,50.61965 C64.4082045,50.63565 64.4207509,50.65265 64.4388178,50.66865 C66.2590595,52.24765 68.282052,53.55565 70.2613829,54.92215 C70.3020335,56.59015 71.8567918,58.23015 73.6037621,57.76065 C74.4368476,57.53765 74.9738364,56.89415 75.060658,56.11765 C75.3969033,55.36465 75.1911413,54.55515 74.6431115,54.00065 C74.3896729,53.30065 73.8566989,52.76015 73.078316,52.59565 C72.2768476,52.42665 71.373,52.71615 70.8204535,53.31515 C69.1909182,52.20015 67.550342,51.09915 66.0272007,49.84115 C68.6458996,48.53265 71.1903234,46.95315 73.7824238,45.06015 C74.0885576,45.27215 74.442368,45.42515 74.8413457,45.48165 C75.8756766,45.62965 77.1263086,45.25215 77.7546357,44.37815 C78.3061784,43.61215 78.211829,42.80665 77.7952862,42.12415 C77.4198959,40.99515 76.0990037,40.22465 74.8925353,40.20665 C74.2777584,40.19765 73.7096543,40.47615 73.2850818,40.90165 C72.7420706,41.44715 72.7094498,42.23515 72.7029257,42.95015 C72.7004164,43.22165 72.7460855,43.48065 72.8193569,43.72715 C69.2817546,46.34665 65.6914572,48.72215 61.5716989,50.39315 C60.718539,50.73915 59.848316,51.02615 58.967052,51.27365 C64.3650446,46.88065 68.4652305,39.82715 68.2956022,33.07165 C68.2740223,32.20015 67.10971,32.07915 66.7272937,32.76165 C64.5888736,36.57115 61.1501375,39.03615 58.7507509,42.58815 C57.2195799,44.85615 57.8258253,47.98815 57.1824424,50.56265 C56.3729442,51.17265 55.5393569,51.72015 54.6937249,52.19065 C54.6761599,52.20065 54.6631115,52.21265 54.6465502,52.22315 C52.3661041,52.62715 50.0630743,52.94565 47.8177584,53.44915 C46.8592082,53.66415 45.9162156,53.94715 44.9887807,54.28715 C49.5727584,48.08815 52.345026,41.09815 51.9786691,33.13065 C51.9415316,32.29515 50.7716989,32.09215 50.4103606,32.82065 C47.3138922,39.03065 41.9726097,43.85065 45.2898959,50.95315 C44.2279628,52.61165 43.023,54.21315 41.7081301,55.76615 C36.4687249,58.54215 31.8922751,63.00365 28.3872937,67.43515 C27.7293569,68.26615 28.9774796,69.34715 29.6419405,68.50865" id="Fill-79" fill="#FEFEFE"></path>
                <path d="M53.1694796,20.2559 C71.1676394,20.2559 85.8108736,34.8444 85.8108736,52.7759 C85.8108736,70.7074 71.1676394,85.2959 53.1694796,85.2959 C35.1718216,85.2959 20.5290892,70.7074 20.5290892,52.7759 C20.5290892,34.8444 35.1718216,20.2559 53.1694796,20.2559 M53.1694796,86.7959 C71.9982156,86.7959 87.3164498,71.5349 87.3164498,52.7759 C87.3164498,34.0169 71.9982156,18.7559 53.1694796,18.7559 C34.3412454,18.7559 19.023513,34.0169 19.023513,52.7759 C19.023513,71.5349 34.3412454,86.7959 53.1694796,86.7959" id="Fill-80" fill="#FEFEFE"></path>
            </g>
        </g>
    </g>
</svg>