<?xml version="1.0" encoding="UTF-8"?>
<svg width="423px" height="464px" viewBox="0 0 423 464" version="1.1" xmlns="http://www.w3.org/2000/svg" xmlns:xlink="http://www.w3.org/1999/xlink">
    <!-- Generator: Sketch 49.2 (51160) - http://www.bohemiancoding.com/sketch -->
    <title>Group 4 Copy 2</title>
    <desc>Created with Sketch.</desc>
    <defs></defs>
    <g id="Symbols" stroke="none" stroke-width="1" fill="none" fill-rule="evenodd" opacity="0.05">
        <g id="Group-4-Copy-2" fill="#FFFFFF">
            <path d="M151.746509,388.932222 L142.939471,404.174155 L113.150653,397.13284 L110.655259,381.369979 L144.489797,370.398536 L151.746509,382.967119 C152.663592,384.55467 152.663592,387.339876 151.746509,388.932222 Z M134.08366,419.512763 C133.164178,421.093124 130.745541,422.493716 128.912973,422.493716 L117.155597,422.493716 L113.736723,400.856835 L141.116498,407.328485 L134.08366,419.512763 Z M88.403795,419.512763 L73.3570721,393.466371 L107.29875,382.460572 L113.61759,422.493716 L93.5688851,422.493716 C91.7323198,422.493716 89.3208784,421.093124 88.403795,419.512763 Z M70.7321509,382.962325 L88.403795,352.380985 C89.3208784,350.795031 91.726723,349.403227 93.5688851,349.403227 L99.7054279,349.403227 L93.2874437,383.333046 L71.5700788,390.379155 L70.7321509,388.932222 C69.8150676,387.339876 69.8150676,384.55467 70.7321509,382.962325 Z M134.08366,352.380985 L142.704403,367.308124 L97.0709122,382.104232 L103.256227,349.403227 L128.912973,349.403227 C130.751137,349.403227 133.164178,350.795031 134.08366,352.380985 Z M154.763209,381.22217 L137.105957,350.640031 C135.582016,347.989851 131.979245,345.915727 128.912973,345.915727 L93.5688851,345.915727 C90.5042117,345.915727 86.9054392,347.989851 85.3806982,350.635237 L67.7146509,381.22217 C66.175518,383.868356 66.175518,388.025392 67.7146509,390.675572 L85.3806982,421.256912 C86.9102365,423.907892 90.5042117,425.979619 93.5688851,425.979619 L128.912973,425.979619 C131.973649,425.979619 135.577218,423.907892 137.105957,421.256912 L154.763209,390.675572 C156.303941,388.025392 156.303941,383.868356 154.763209,381.22217 Z" id="Fill-1"></path>
            <path d="M85.1891261,426.868072 L69.1245766,454.659412 L49.2589685,415.482763 L76.8514234,406.486371 L85.1891261,420.909361 C86.0990135,422.492119 86.0990135,425.280521 85.1891261,426.868072 Z M62.3459955,460.435959 L41.384205,460.435959 L52.9568851,430.510572 L66.9601959,458.119747 C65.847223,459.400495 63.9083153,460.435959 62.3459955,460.435959 Z M21.8400158,457.449412 L4.16837162,426.868072 C3.81816892,426.252866 3.64226802,425.453897 3.55831532,424.623768 L45.0933153,441.172015 L37.6375158,460.435959 L27.0075045,460.435959 C25.1701396,460.435959 22.7523018,459.041758 21.8400158,457.449412 Z M21.843214,390.323227 C22.7523018,388.735675 25.1701396,387.340675 27.0075045,387.340675 L31.0692162,387.340675 L50.8372793,426.315985 L46.3486081,437.916216 L4.10200901,421.086732 C4.12999324,421.029206 4.13958784,420.9565 4.16837162,420.909361 L21.843214,390.323227 Z M67.5118851,390.323227 L75.0660293,403.394361 L47.6598694,412.338021 L34.9886081,387.340675 L62.3459955,387.340675 C64.1777635,387.340675 66.5900045,388.735675 67.5118851,390.323227 Z M70.5333829,388.581474 C69.003045,385.931294 65.4106689,383.852376 62.3459955,383.852376 L27.0075045,383.852376 C23.941232,383.852376 20.3488559,385.931294 18.8177185,388.57668 L1.15087162,419.155624 C-0.383463964,421.806603 -0.383463964,425.961242 1.15087162,428.612222 L18.8137207,459.193562 C20.3384617,461.846139 23.9372342,463.925856 27.0075045,463.925856 L62.3459955,463.925856 C65.4106689,463.925856 69.0078423,461.846139 70.5333829,459.193562 L88.2106239,428.612222 C89.7353649,425.961242 89.7353649,421.806603 88.2106239,419.163613 L70.5333829,388.581474 Z" id="Fill-3"></path>
            <path d="M151.746509,235.135389 L142.939471,250.377322 L113.150653,243.336008 L110.655259,227.573147 L144.489797,216.601704 L151.746509,229.170286 C152.663592,230.757838 152.663592,233.543044 151.746509,235.135389 Z M134.08366,265.71593 C133.164178,267.296291 130.745541,268.696884 128.912973,268.696884 L117.155597,268.696884 L113.736723,247.060003 L141.116498,253.531652 L134.08366,265.71593 Z M88.403795,265.71593 L73.3570721,239.669539 L107.29875,228.66374 L113.61759,268.696884 L93.5688851,268.696884 C91.7323198,268.696884 89.3208784,267.296291 88.403795,265.71593 Z M70.7321509,229.165492 L88.403795,198.584152 C89.3208784,196.998198 91.726723,195.606394 93.5688851,195.606394 L99.7054279,195.606394 L93.2874437,229.536214 L71.5700788,236.582322 L70.7321509,235.135389 C69.8150676,233.543044 69.8150676,230.757838 70.7321509,229.165492 Z M134.08366,198.584152 L142.704403,213.511291 L97.0709122,228.307399 L103.256227,195.606394 L128.912973,195.606394 C130.751137,195.606394 133.164178,196.998198 134.08366,198.584152 Z M154.763209,227.425338 L137.105957,196.843198 C135.582016,194.193018 131.979245,192.118894 128.912973,192.118894 L93.5688851,192.118894 C90.5042117,192.118894 86.9054392,194.193018 85.3806982,196.838405 L67.7146509,227.425338 C66.175518,230.071523 66.175518,234.228559 67.7146509,236.87874 L85.3806982,267.46008 C86.9102365,270.111059 90.5042117,272.182786 93.5688851,272.182786 L128.912973,272.182786 C131.973649,272.182786 135.577218,270.111059 137.105957,267.46008 L154.763209,236.87874 C156.303941,234.228559 156.303941,230.071523 154.763209,227.425338 Z" id="Fill-8"></path>
            <path d="M4.58453716,191.057464 L8.98285923,183.454474 L36.2826791,195.779371 L16.0348863,216.832206 L4.58453716,197.016175 C3.66825338,195.428624 3.66825338,192.645814 4.58453716,191.057464 Z M22.2593795,160.464938 C23.1684673,158.883778 25.5863052,157.487979 27.42367,157.487979 L49.1002579,157.487979 L57.210089,201.401716 L10.7346723,180.415995 L22.2593795,160.464938 Z M67.9280507,160.470531 L74.1709336,171.270196 L56.0019696,175.674912 L52.6454606,157.487979 L62.762161,157.487979 C64.5939291,157.487979 67.00617,158.883778 67.9280507,160.470531 Z M85.6052917,197.016175 L77.7193345,210.656974 L61.0783097,203.151459 L56.6408097,179.112077 L75.9971047,174.424526 L85.5956971,191.053469 C86.5151791,192.645814 86.5151791,195.428624 85.6052917,197.016175 Z M67.9280507,227.602309 C67.00617,229.189861 64.5939291,230.582464 62.762161,230.582464 L27.42367,230.582464 C25.5863052,230.582464 23.1684673,229.189861 22.2561813,227.602309 L17.8530619,219.980144 L39.6559786,197.307799 L75.9635236,213.695454 L67.9280507,227.602309 Z M19.2298863,229.342464 C20.7650214,231.992644 24.3573975,234.073959 27.42367,234.073959 L62.762161,234.073959 C65.8268345,234.073959 69.4192106,231.992644 70.9495484,229.347258 L88.6267894,198.761923 C90.1515304,196.110144 90.1515304,191.961897 88.6267894,189.310918 L70.9495484,158.724784 C69.4240079,156.079397 65.8268345,153.99968 62.762161,153.99968 L27.42367,153.99968 C24.3533998,153.99968 20.7546273,156.079397 19.233884,158.724784 L1.56703716,189.310918 C0.0327015766,191.961897 0.0327015766,196.110144 1.56703716,198.761923 L19.2298863,229.342464 Z" id="Fill-10"></path>
            <path d="M85.1891261,273.604072 L69.1245766,301.395412 L49.2589685,262.218763 L76.8514234,253.222371 L85.1891261,267.645361 C86.0990135,269.228119 86.0990135,272.016521 85.1891261,273.604072 Z M62.3459955,307.171959 L41.384205,307.171959 L52.9568851,277.246572 L66.9601959,304.855747 C65.847223,306.136495 63.9083153,307.171959 62.3459955,307.171959 Z M21.8400158,304.185412 L4.16837162,273.604072 C3.81816892,272.988866 3.64226802,272.189897 3.55831532,271.359768 L45.0933153,287.908015 L37.6375158,307.171959 L27.0075045,307.171959 C25.1701396,307.171959 22.7523018,305.777758 21.8400158,304.185412 Z M21.843214,237.059227 C22.7523018,235.471675 25.1701396,234.076675 27.0075045,234.076675 L31.0692162,234.076675 L50.8372793,273.051985 L46.3486081,284.652216 L4.10200901,267.822732 C4.12999324,267.765206 4.13958784,267.6925 4.16837162,267.645361 L21.843214,237.059227 Z M67.5118851,237.059227 L75.0660293,250.130361 L47.6598694,259.074021 L34.9886081,234.076675 L62.3459955,234.076675 C64.1777635,234.076675 66.5900045,235.471675 67.5118851,237.059227 Z M70.5333829,235.317474 C69.003045,232.667294 65.4106689,230.588376 62.3459955,230.588376 L27.0075045,230.588376 C23.941232,230.588376 20.3488559,232.667294 18.8177185,235.31268 L1.15087162,265.891624 C-0.383463964,268.542603 -0.383463964,272.697242 1.15087162,275.348222 L18.8137207,305.929562 C20.3384617,308.582139 23.9372342,310.661856 27.0075045,310.661856 L62.3459955,310.661856 C65.4106689,310.661856 69.0078423,308.582139 70.5333829,305.929562 L88.2106239,275.348222 C89.7353649,272.697242 89.7353649,268.542603 88.2106239,265.899613 L70.5333829,235.317474 Z" id="Fill-13"></path>
            <path d="M136.909988,191.057464 L141.30831,183.454474 L168.60813,195.779371 L148.360337,216.832206 L136.909988,197.016175 C135.993704,195.428624 135.993704,192.645814 136.909988,191.057464 Z M154.58483,160.464938 C155.493918,158.883778 157.911756,157.487979 159.74912,157.487979 L181.425708,157.487979 L189.535539,201.401716 L143.060123,180.415995 L154.58483,160.464938 Z M200.253501,160.470531 L206.496384,171.270196 L188.32742,175.674912 L184.970911,157.487979 L195.087611,157.487979 C196.91938,157.487979 199.33162,158.883778 200.253501,160.470531 Z M217.930742,197.016175 L210.044785,210.656974 L193.40376,203.151459 L188.96626,179.112077 L208.322555,174.424526 L217.921148,191.053469 C218.84063,192.645814 218.84063,195.428624 217.930742,197.016175 Z M200.253501,227.602309 C199.33162,229.189861 196.91938,230.582464 195.087611,230.582464 L159.74912,230.582464 C157.911756,230.582464 155.493918,229.189861 154.581632,227.602309 L150.178512,219.980144 L171.981429,197.307799 L208.288974,213.695454 L200.253501,227.602309 Z M151.555337,229.342464 C153.090472,231.992644 156.682848,234.073959 159.74912,234.073959 L195.087611,234.073959 C198.152285,234.073959 201.744661,231.992644 203.274999,229.347258 L220.95224,198.761923 C222.476981,196.110144 222.476981,191.961897 220.95224,189.310918 L203.274999,158.724784 C201.749458,156.079397 198.152285,153.99968 195.087611,153.99968 L159.74912,153.99968 C156.67885,153.99968 153.080078,156.079397 151.559334,158.724784 L133.892488,189.310918 C132.358152,191.961897 132.358152,196.110144 133.892488,198.761923 L151.555337,229.342464 Z" id="Fill-15"></path>
            <path d="M203.168252,153.057784 L207.566574,145.454794 L234.866394,157.779691 L214.618601,178.832526 L203.168252,159.016495 C202.251968,157.428943 202.251968,154.646134 203.168252,153.057784 Z M220.843094,122.465258 C221.752182,120.884098 224.17002,119.488299 226.007385,119.488299 L247.683972,119.488299 L255.793803,163.402036 L209.318387,142.416314 L220.843094,122.465258 Z M266.511765,122.470851 L272.754648,133.270515 L254.585684,137.675232 L251.229175,119.488299 L261.345876,119.488299 C263.177644,119.488299 265.589885,120.884098 266.511765,122.470851 Z M284.189006,159.016495 L276.303049,172.657294 L259.662024,165.151778 L255.224524,141.112397 L274.580819,136.424845 L284.179412,153.053789 C285.098894,154.646134 285.098894,157.428943 284.189006,159.016495 Z M266.511765,189.602629 C265.589885,191.19018 263.177644,192.582784 261.345876,192.582784 L226.007385,192.582784 C224.17002,192.582784 221.752182,191.19018 220.839896,189.602629 L216.436776,181.980464 L238.239693,159.308119 L274.547238,175.695773 L266.511765,189.602629 Z M217.813601,191.342784 C219.348736,193.992964 222.941112,196.074278 226.007385,196.074278 L261.345876,196.074278 C264.410549,196.074278 268.002925,193.992964 269.533263,191.347577 L287.210504,160.762242 C288.735245,158.110464 288.735245,153.962216 287.210504,151.311237 L269.533263,120.725103 C268.007722,118.079716 264.410549,116 261.345876,116 L226.007385,116 C222.937114,116 219.338342,118.079716 217.817599,120.725103 L200.150752,151.311237 C198.616416,153.962216 198.616416,158.110464 200.150752,160.762242 L217.813601,191.342784 Z" id="Fill-15"></path>
            <path d="M71.1682517,76.0577835 L75.5665738,68.4547938 L102.866394,80.7796907 L82.6186008,101.832526 L71.1682517,82.0164948 C70.2519679,80.4289433 70.2519679,77.646134 71.1682517,76.0577835 Z M88.843094,45.4652577 C89.7521819,43.8840979 92.1700197,42.488299 94.0073846,42.488299 L115.683972,42.488299 L123.793803,86.4020361 L77.3183868,65.4163144 L88.843094,45.4652577 Z M134.511765,45.4708505 L140.754648,56.2705155 L122.585684,60.675232 L119.229175,42.488299 L129.345876,42.488299 C131.177644,42.488299 133.589885,43.8840979 134.511765,45.4708505 Z M152.189006,82.0164948 L144.303049,95.6572938 L127.662024,88.1517784 L123.224524,64.1123969 L142.580819,59.4248454 L152.179412,76.0537887 C153.098894,77.646134 153.098894,80.4289433 152.189006,82.0164948 Z M134.511765,112.602629 C133.589885,114.19018 131.177644,115.582784 129.345876,115.582784 L94.0073846,115.582784 C92.1700197,115.582784 89.7521819,114.19018 88.8398958,112.602629 L84.4367765,104.980464 L106.239693,82.3081186 L142.547238,98.6957732 L134.511765,112.602629 Z M85.8136008,114.342784 C87.3487359,116.992964 90.941112,119.074278 94.0073846,119.074278 L129.345876,119.074278 C132.410549,119.074278 136.002925,116.992964 137.533263,114.347577 L155.210504,83.7622423 C156.735245,81.1104639 156.735245,76.9622165 155.210504,74.3112371 L137.533263,43.7251031 C136.007722,41.0797165 132.410549,39 129.345876,39 L94.0073846,39 C90.9371143,39 87.3383418,41.0797165 85.8175985,43.7251031 L68.1507517,74.3112371 C66.6164161,76.9622165 66.6164161,81.1104639 68.1507517,83.7622423 L85.8136008,114.342784 Z" id="Fill-15"></path>
            <path d="M4.16825169,37.0577835 L8.56657376,29.4547938 L35.8663936,41.7796907 L15.6186008,62.8325258 L4.16825169,43.0164948 C3.25196791,41.4289433 3.25196791,38.646134 4.16825169,37.0577835 Z M21.843094,6.46525773 C22.7521819,4.88409794 25.1700197,3.48829897 27.0073846,3.48829897 L48.6839724,3.48829897 L56.7938035,47.4020361 L10.3183868,26.4163144 L21.843094,6.46525773 Z M67.5117652,6.47085052 L73.7546481,17.2705155 L55.5856841,21.675232 L52.2291751,3.48829897 L62.3458756,3.48829897 C64.1776436,3.48829897 66.5898846,4.88409794 67.5117652,6.47085052 Z M85.1890062,43.0164948 L77.303049,56.6572938 L60.6620242,49.1517784 L56.2245242,25.1123969 L75.5808193,20.4248454 L85.1794116,37.0537887 C86.0988936,38.646134 86.0988936,41.4289433 85.1890062,43.0164948 Z M67.5117652,73.6026289 C66.5898846,75.1901804 64.1776436,76.5827835 62.3458756,76.5827835 L27.0073846,76.5827835 C25.1700197,76.5827835 22.7521819,75.1901804 21.8398958,73.6026289 L17.4367765,65.9804639 L39.2396931,43.3081186 L75.5472382,59.6957732 L67.5117652,73.6026289 Z M18.8136008,75.3427835 C20.3487359,77.9929639 23.941112,80.0742784 27.0073846,80.0742784 L62.3458756,80.0742784 C65.410549,80.0742784 69.0029251,77.9929639 70.533263,75.3475773 L88.2105039,44.7622423 C89.7352449,42.1104639 89.7352449,37.9622165 88.2105039,35.3112371 L70.533263,4.72510309 C69.0077224,2.07971649 65.410549,0 62.3458756,0 L27.0073846,0 C23.9371143,0 20.3383418,2.07971649 18.8175985,4.72510309 L1.15075169,35.3112371 C-0.383583896,37.9622165 -0.383583896,42.1104639 1.15075169,44.7622423 L18.8136008,75.3427835 Z" id="Fill-15"></path>
            <path d="M218.314126,273.604072 L202.249577,301.395412 L182.383968,262.218763 L209.976423,253.222371 L218.314126,267.645361 C219.224014,269.228119 219.224014,272.016521 218.314126,273.604072 Z M195.470995,307.171959 L174.509205,307.171959 L186.081885,277.246572 L200.085196,304.855747 C198.972223,306.136495 197.033315,307.171959 195.470995,307.171959 Z M154.965016,304.185412 L137.293372,273.604072 C136.943169,272.988866 136.767268,272.189897 136.683315,271.359768 L178.218315,287.908015 L170.762516,307.171959 L160.132505,307.171959 C158.29514,307.171959 155.877302,305.777758 154.965016,304.185412 Z M154.968214,237.059227 C155.877302,235.471675 158.29514,234.076675 160.132505,234.076675 L164.194216,234.076675 L183.962279,273.051985 L179.473608,284.652216 L137.227009,267.822732 C137.254993,267.765206 137.264588,267.6925 137.293372,267.645361 L154.968214,237.059227 Z M200.636885,237.059227 L208.191029,250.130361 L180.784869,259.074021 L168.113608,234.076675 L195.470995,234.076675 C197.302764,234.076675 199.715005,235.471675 200.636885,237.059227 Z M203.658383,235.317474 C202.128045,232.667294 198.535669,230.588376 195.470995,230.588376 L160.132505,230.588376 C157.066232,230.588376 153.473856,232.667294 151.942718,235.31268 L134.275872,265.891624 C132.741536,268.542603 132.741536,272.697242 134.275872,275.348222 L151.938721,305.929562 C153.463462,308.582139 157.062234,310.661856 160.132505,310.661856 L195.470995,310.661856 C198.535669,310.661856 202.132842,308.582139 203.658383,305.929562 L221.335624,275.348222 C222.860365,272.697242 222.860365,268.542603 221.335624,265.899613 L203.658383,235.317474 Z" id="Fill-18"></path>
            <path d="M284.162948,388.932222 L275.35591,404.174155 L245.567092,397.13284 L243.071698,381.369979 L276.906236,370.398536 L284.162948,382.967119 C285.080032,384.55467 285.080032,387.339876 284.162948,388.932222 Z M266.500099,419.512763 C265.580617,421.093124 263.16198,422.493716 261.329412,422.493716 L249.572036,422.493716 L246.153162,400.856835 L273.532937,407.328485 L266.500099,419.512763 Z M220.820234,419.512763 L205.773511,393.466371 L239.715189,382.460572 L246.034029,422.493716 L225.985324,422.493716 C224.148759,422.493716 221.737318,421.093124 220.820234,419.512763 Z M203.14859,382.962325 L220.820234,352.380985 C221.737318,350.795031 224.143162,349.403227 225.985324,349.403227 L232.121867,349.403227 L225.703883,383.333046 L203.986518,390.379155 L203.14859,388.932222 C202.231507,387.339876 202.231507,384.55467 203.14859,382.962325 Z M266.500099,352.380985 L275.120842,367.308124 L229.487351,382.104232 L235.672667,349.403227 L261.329412,349.403227 C263.167577,349.403227 265.580617,350.795031 266.500099,352.380985 Z M287.179649,381.22217 L269.522396,350.640031 C267.998455,347.989851 264.395685,345.915727 261.329412,345.915727 L225.985324,345.915727 C222.920651,345.915727 219.321878,347.989851 217.797137,350.635237 L200.13109,381.22217 C198.591957,383.868356 198.591957,388.025392 200.13109,390.675572 L217.797137,421.256912 C219.326676,423.907892 222.920651,425.979619 225.985324,425.979619 L261.329412,425.979619 C264.390088,425.979619 267.993658,423.907892 269.522396,421.256912 L287.179649,390.675572 C288.720381,388.025392 288.720381,383.868356 287.179649,381.22217 Z" id="Fill-20"></path>
            <path d="M350.730565,426.868072 L334.666016,454.659412 L314.800408,415.482763 L342.392863,406.486371 L350.730565,420.909361 C351.640453,422.492119 351.640453,425.280521 350.730565,426.868072 Z M327.887435,460.435959 L306.925644,460.435959 L318.498324,430.510572 L332.501635,458.119747 C331.388662,459.400495 329.449755,460.435959 327.887435,460.435959 Z M287.381455,457.449412 L269.709811,426.868072 C269.359608,426.252866 269.183707,425.453897 269.099755,424.623768 L310.634755,441.172015 L303.178955,460.435959 L292.548944,460.435959 C290.711579,460.435959 288.293741,459.041758 287.381455,457.449412 Z M287.384653,390.323227 C288.293741,388.735675 290.711579,387.340675 292.548944,387.340675 L296.610655,387.340675 L316.378718,426.315985 L311.890047,437.916216 L269.643448,421.086732 C269.671432,421.029206 269.681027,420.9565 269.709811,420.909361 L287.384653,390.323227 Z M333.053324,390.323227 L340.607468,403.394361 L313.201309,412.338021 L300.530047,387.340675 L327.887435,387.340675 C329.719203,387.340675 332.131444,388.735675 333.053324,390.323227 Z M336.074822,388.581474 C334.544484,385.931294 330.952108,383.852376 327.887435,383.852376 L292.548944,383.852376 C289.482671,383.852376 285.890295,385.931294 284.359158,388.57668 L266.692311,419.155624 C265.157975,421.806603 265.157975,425.961242 266.692311,428.612222 L284.35516,459.193562 C285.879901,461.846139 289.478673,463.925856 292.548944,463.925856 L327.887435,463.925856 C330.952108,463.925856 334.549282,461.846139 336.074822,459.193562 L353.752063,428.612222 C355.276804,425.961242 355.276804,421.806603 353.752063,419.163613 L336.074822,388.581474 Z" id="Fill-22"></path>
            <path d="M284.162948,311.770106 L275.35591,327.012039 L245.567092,319.970724 L243.071698,304.207863 L276.906236,293.23642 L284.162948,305.805003 C285.080032,307.392554 285.080032,310.17776 284.162948,311.770106 Z M266.500099,342.350647 C265.580617,343.931008 263.16198,345.331601 261.329412,345.331601 L249.572036,345.331601 L246.153162,323.694719 L273.532937,330.166369 L266.500099,342.350647 Z M220.820234,342.350647 L205.773511,316.304255 L239.715189,305.298456 L246.034029,345.331601 L225.985324,345.331601 C224.148759,345.331601 221.737318,343.931008 220.820234,342.350647 Z M203.14859,305.800209 L220.820234,275.218869 C221.737318,273.632915 224.143162,272.241111 225.985324,272.241111 L232.121867,272.241111 L225.703883,306.17093 L203.986518,313.217039 L203.14859,311.770106 C202.231507,310.17776 202.231507,307.392554 203.14859,305.800209 Z M266.500099,275.218869 L275.120842,290.146008 L229.487351,304.942116 L235.672667,272.241111 L261.329412,272.241111 C263.167577,272.241111 265.580617,273.632915 266.500099,275.218869 Z M287.179649,304.060054 L269.522396,273.477915 C267.998455,270.827735 264.395685,268.753611 261.329412,268.753611 L225.985324,268.753611 C222.920651,268.753611 219.321878,270.827735 217.797137,273.473121 L200.13109,304.060054 C198.591957,306.70624 198.591957,310.863276 200.13109,313.513456 L217.797137,344.094796 C219.326676,346.745776 222.920651,348.817503 225.985324,348.817503 L261.329412,348.817503 C264.390088,348.817503 267.993658,346.745776 269.522396,344.094796 L287.179649,313.513456 C288.720381,310.863276 288.720381,306.70624 287.179649,304.060054 Z" id="Fill-25"></path>
            <path d="M337.168252,230.057784 L341.566574,222.454794 L368.866394,234.779691 L348.618601,255.832526 L337.168252,236.016495 C336.251968,234.428943 336.251968,231.646134 337.168252,230.057784 Z M354.843094,199.465258 C355.752182,197.884098 358.17002,196.488299 360.007385,196.488299 L381.683972,196.488299 L389.793803,240.402036 L343.318387,219.416314 L354.843094,199.465258 Z M400.511765,199.470851 L406.754648,210.270515 L388.585684,214.675232 L385.229175,196.488299 L395.345876,196.488299 C397.177644,196.488299 399.589885,197.884098 400.511765,199.470851 Z M418.189006,236.016495 L410.303049,249.657294 L393.662024,242.151778 L389.224524,218.112397 L408.580819,213.424845 L418.179412,230.053789 C419.098894,231.646134 419.098894,234.428943 418.189006,236.016495 Z M400.511765,266.602629 C399.589885,268.19018 397.177644,269.582784 395.345876,269.582784 L360.007385,269.582784 C358.17002,269.582784 355.752182,268.19018 354.839896,266.602629 L350.436776,258.980464 L372.239693,236.308119 L408.547238,252.695773 L400.511765,266.602629 Z M351.813601,268.342784 C353.348736,270.992964 356.941112,273.074278 360.007385,273.074278 L395.345876,273.074278 C398.410549,273.074278 402.002925,270.992964 403.533263,268.347577 L421.210504,237.762242 C422.735245,235.110464 422.735245,230.962216 421.210504,228.311237 L403.533263,197.725103 C402.007722,195.079716 398.410549,193 395.345876,193 L360.007385,193 C356.937114,193 353.338342,195.079716 351.817599,197.725103 L334.150752,228.311237 C332.616416,230.962216 332.616416,235.110464 334.150752,237.762242 L351.813601,268.342784 Z" id="Fill-27"></path>
            <path d="M350.730565,273.604072 L334.666016,301.395412 L314.800408,262.218763 L342.392863,253.222371 L350.730565,267.645361 C351.640453,269.228119 351.640453,272.016521 350.730565,273.604072 Z M327.887435,307.171959 L306.925644,307.171959 L318.498324,277.246572 L332.501635,304.855747 C331.388662,306.136495 329.449755,307.171959 327.887435,307.171959 Z M287.381455,304.185412 L269.709811,273.604072 C269.359608,272.988866 269.183707,272.189897 269.099755,271.359768 L310.634755,287.908015 L303.178955,307.171959 L292.548944,307.171959 C290.711579,307.171959 288.293741,305.777758 287.381455,304.185412 Z M287.384653,237.059227 C288.293741,235.471675 290.711579,234.076675 292.548944,234.076675 L296.610655,234.076675 L316.378718,273.051985 L311.890047,284.652216 L269.643448,267.822732 C269.671432,267.765206 269.681027,267.6925 269.709811,267.645361 L287.384653,237.059227 Z M333.053324,237.059227 L340.607468,250.130361 L313.201309,259.074021 L300.530047,234.076675 L327.887435,234.076675 C329.719203,234.076675 332.131444,235.471675 333.053324,237.059227 Z M336.074822,235.317474 C334.544484,232.667294 330.952108,230.588376 327.887435,230.588376 L292.548944,230.588376 C289.482671,230.588376 285.890295,232.667294 284.359158,235.31268 L266.692311,265.891624 C265.157975,268.542603 265.157975,272.697242 266.692311,275.348222 L284.35516,305.929562 C285.879901,308.582139 289.478673,310.661856 292.548944,310.661856 L327.887435,310.661856 C330.952108,310.661856 334.549282,308.582139 336.074822,305.929562 L353.752063,275.348222 C355.276804,272.697242 355.276804,268.542603 353.752063,265.899613 L336.074822,235.317474 Z" id="Fill-30"></path>
        </g>
    </g>
</svg>