<?xml version="1.0" encoding="UTF-8"?>
<svg width="334px" height="277px" viewBox="0 0 334 277" version="1.1" xmlns="http://www.w3.org/2000/svg" xmlns:xlink="http://www.w3.org/1999/xlink">
    <!-- Generator: Sketch 49.2 (51160) - http://www.bohemiancoding.com/sketch -->
    <title>Group 4</title>
    <desc>Created with Sketch.</desc>
    <defs></defs>
    <g id="Page-1" stroke="none" stroke-width="1" fill="none" fill-rule="evenodd" opacity="0.350000024">
        <g id="Homepage" transform="translate(-895.000000, -1594.000000)" fill="#FFFFFF">
            <g id="Group-3" transform="translate(0.000000, 1594.000000)">
                <g id="Group-4" transform="translate(895.000000, -33.000000)">
                    <path d="M151.746509,234.932222 L142.939471,250.174155 L113.150653,243.13284 L110.655259,227.369979 L144.489797,216.398536 L151.746509,228.967119 C152.663592,230.55467 152.663592,233.339876 151.746509,234.932222 Z M134.08366,265.512763 C133.164178,267.093124 130.745541,268.493716 128.912973,268.493716 L117.155597,268.493716 L113.736723,246.856835 L141.116498,253.328485 L134.08366,265.512763 Z M88.403795,265.512763 L73.3570721,239.466371 L107.29875,228.460572 L113.61759,268.493716 L93.5688851,268.493716 C91.7323198,268.493716 89.3208784,267.093124 88.403795,265.512763 Z M70.7321509,228.962325 L88.403795,198.380985 C89.3208784,196.795031 91.726723,195.403227 93.5688851,195.403227 L99.7054279,195.403227 L93.2874437,229.333046 L71.5700788,236.379155 L70.7321509,234.932222 C69.8150676,233.339876 69.8150676,230.55467 70.7321509,228.962325 Z M134.08366,198.380985 L142.704403,213.308124 L97.0709122,228.104232 L103.256227,195.403227 L128.912973,195.403227 C130.751137,195.403227 133.164178,196.795031 134.08366,198.380985 Z M154.763209,227.22217 L137.105957,196.640031 C135.582016,193.989851 131.979245,191.915727 128.912973,191.915727 L93.5688851,191.915727 C90.5042117,191.915727 86.9054392,193.989851 85.3806982,196.635237 L67.7146509,227.22217 C66.175518,229.868356 66.175518,234.025392 67.7146509,236.675572 L85.3806982,267.256912 C86.9102365,269.907892 90.5042117,271.979619 93.5688851,271.979619 L128.912973,271.979619 C131.973649,271.979619 135.577218,269.907892 137.105957,267.256912 L154.763209,236.675572 C156.303941,234.025392 156.303941,229.868356 154.763209,227.22217 Z" id="Fill-1"></path>
                    <path d="M151.746509,81.1353892 L142.939471,96.3773222 L113.150653,89.3360077 L110.655259,73.5731469 L144.489797,62.6017036 L151.746509,75.1702861 C152.663592,76.7578376 152.663592,79.5430438 151.746509,81.1353892 Z M134.08366,111.71593 C133.164178,113.296291 130.745541,114.696884 128.912973,114.696884 L117.155597,114.696884 L113.736723,93.0600026 L141.116498,99.5316521 L134.08366,111.71593 Z M88.403795,111.71593 L73.3570721,85.6695387 L107.29875,74.6637397 L113.61759,114.696884 L93.5688851,114.696884 C91.7323198,114.696884 89.3208784,113.296291 88.403795,111.71593 Z M70.7321509,75.1654923 L88.403795,44.5841521 C89.3208784,42.9981985 91.726723,41.6063943 93.5688851,41.6063943 L99.7054279,41.6063943 L93.2874437,75.5362139 L71.5700788,82.5823222 L70.7321509,81.1353892 C69.8150676,79.5430438 69.8150676,76.7578376 70.7321509,75.1654923 Z M134.08366,44.5841521 L142.704403,59.5112912 L97.0709122,74.3073995 L103.256227,41.6063943 L128.912973,41.6063943 C130.751137,41.6063943 133.164178,42.9981985 134.08366,44.5841521 Z M154.763209,73.4253376 L137.105957,42.8431985 C135.582016,40.193018 131.979245,38.1188943 128.912973,38.1188943 L93.5688851,38.1188943 C90.5042117,38.1188943 86.9054392,40.193018 85.3806982,42.8384046 L67.7146509,73.4253376 C66.175518,76.0715232 66.175518,80.2285593 67.7146509,82.8787397 L85.3806982,113.46008 C86.9102365,116.111059 90.5042117,118.182786 93.5688851,118.182786 L128.912973,118.182786 C131.973649,118.182786 135.577218,116.111059 137.105957,113.46008 L154.763209,82.8787397 C156.303941,80.2285593 156.303941,76.0715232 154.763209,73.4253376 Z" id="Fill-8"></path>
                    <path d="M4.58453716,37.0574639 L8.98285923,29.4544742 L36.2826791,41.7793711 L16.0348863,62.8322062 L4.58453716,43.0161753 C3.66825338,41.4286237 3.66825338,38.6458144 4.58453716,37.0574639 Z M22.2593795,6.46493814 C23.1684673,4.88377835 25.5863052,3.48797938 27.42367,3.48797938 L49.1002579,3.48797938 L57.210089,47.4017165 L10.7346723,26.4159948 L22.2593795,6.46493814 Z M67.9280507,6.47053093 L74.1709336,17.2701959 L56.0019696,21.6749124 L52.6454606,3.48797938 L62.762161,3.48797938 C64.5939291,3.48797938 67.00617,4.88377835 67.9280507,6.47053093 Z M85.6052917,43.0161753 L77.7193345,56.6569742 L61.0783097,49.1514588 L56.6408097,25.1120773 L75.9971047,20.4245258 L85.5956971,37.0534691 C86.5151791,38.6458144 86.5151791,41.4286237 85.6052917,43.0161753 Z M67.9280507,73.6023093 C67.00617,75.1898608 64.5939291,76.5824639 62.762161,76.5824639 L27.42367,76.5824639 C25.5863052,76.5824639 23.1684673,75.1898608 22.2561813,73.6023093 L17.8530619,65.9801443 L39.6559786,43.307799 L75.9635236,59.6954536 L67.9280507,73.6023093 Z M19.2298863,75.3424639 C20.7650214,77.9926443 24.3573975,80.0739588 27.42367,80.0739588 L62.762161,80.0739588 C65.8268345,80.0739588 69.4192106,77.9926443 70.9495484,75.3472577 L88.6267894,44.7619227 C90.1515304,42.1101443 90.1515304,37.9618969 88.6267894,35.3109175 L70.9495484,4.72478351 C69.4240079,2.07939691 65.8268345,-0.000319587629 62.762161,-0.000319587629 L27.42367,-0.000319587629 C24.3533998,-0.000319587629 20.7546273,2.07939691 19.233884,4.72478351 L1.56703716,35.3109175 C0.0327015766,37.9618969 0.0327015766,42.1101443 1.56703716,44.7619227 L19.2298863,75.3424639 Z" id="Fill-10"></path>
                    <path d="M85.1891261,119.604072 L69.1245766,147.395412 L49.2589685,108.218763 L76.8514234,99.2223711 L85.1891261,113.645361 C86.0990135,115.228119 86.0990135,118.016521 85.1891261,119.604072 Z M62.3459955,153.171959 L41.384205,153.171959 L52.9568851,123.246572 L66.9601959,150.855747 C65.847223,152.136495 63.9083153,153.171959 62.3459955,153.171959 Z M21.8400158,150.185412 L4.16837162,119.604072 C3.81816892,118.988866 3.64226802,118.189897 3.55831532,117.359768 L45.0933153,133.908015 L37.6375158,153.171959 L27.0075045,153.171959 C25.1701396,153.171959 22.7523018,151.777758 21.8400158,150.185412 Z M21.843214,83.0592268 C22.7523018,81.4716753 25.1701396,80.0766753 27.0075045,80.0766753 L31.0692162,80.0766753 L50.8372793,119.051985 L46.3486081,130.652216 L4.10200901,113.822732 C4.12999324,113.765206 4.13958784,113.6925 4.16837162,113.645361 L21.843214,83.0592268 Z M67.5118851,83.0592268 L75.0660293,96.1303608 L47.6598694,105.074021 L34.9886081,80.0766753 L62.3459955,80.0766753 C64.1777635,80.0766753 66.5900045,81.4716753 67.5118851,83.0592268 Z M70.5333829,81.3174742 C69.003045,78.6672938 65.4106689,76.5883763 62.3459955,76.5883763 L27.0075045,76.5883763 C23.941232,76.5883763 20.3488559,78.6672938 18.8177185,81.3126804 L1.15087162,111.891624 C-0.383463964,114.542603 -0.383463964,118.697242 1.15087162,121.348222 L18.8137207,151.929562 C20.3384617,154.582139 23.9372342,156.661856 27.0075045,156.661856 L62.3459955,156.661856 C65.4106689,156.661856 69.0078423,154.582139 70.5333829,151.929562 L88.2106239,121.348222 C89.7353649,118.697242 89.7353649,114.542603 88.2106239,111.899613 L70.5333829,81.3174742 Z" id="Fill-13"></path>
                    <path d="M136.909988,37.0574639 L141.30831,29.4544742 L168.60813,41.7793711 L148.360337,62.8322062 L136.909988,43.0161753 C135.993704,41.4286237 135.993704,38.6458144 136.909988,37.0574639 Z M154.58483,6.46493814 C155.493918,4.88377835 157.911756,3.48797938 159.74912,3.48797938 L181.425708,3.48797938 L189.535539,47.4017165 L143.060123,26.4159948 L154.58483,6.46493814 Z M200.253501,6.47053093 L206.496384,17.2701959 L188.32742,21.6749124 L184.970911,3.48797938 L195.087611,3.48797938 C196.91938,3.48797938 199.33162,4.88377835 200.253501,6.47053093 Z M217.930742,43.0161753 L210.044785,56.6569742 L193.40376,49.1514588 L188.96626,25.1120773 L208.322555,20.4245258 L217.921148,37.0534691 C218.84063,38.6458144 218.84063,41.4286237 217.930742,43.0161753 Z M200.253501,73.6023093 C199.33162,75.1898608 196.91938,76.5824639 195.087611,76.5824639 L159.74912,76.5824639 C157.911756,76.5824639 155.493918,75.1898608 154.581632,73.6023093 L150.178512,65.9801443 L171.981429,43.307799 L208.288974,59.6954536 L200.253501,73.6023093 Z M151.555337,75.3424639 C153.090472,77.9926443 156.682848,80.0739588 159.74912,80.0739588 L195.087611,80.0739588 C198.152285,80.0739588 201.744661,77.9926443 203.274999,75.3472577 L220.95224,44.7619227 C222.476981,42.1101443 222.476981,37.9618969 220.95224,35.3109175 L203.274999,4.72478351 C201.749458,2.07939691 198.152285,-0.000319587629 195.087611,-0.000319587629 L159.74912,-0.000319587629 C156.67885,-0.000319587629 153.080078,2.07939691 151.559334,4.72478351 L133.892488,35.3109175 C132.358152,37.9618969 132.358152,42.1101443 133.892488,44.7619227 L151.555337,75.3424639 Z" id="Fill-15"></path>
                    <path d="M218.314126,119.604072 L202.249577,147.395412 L182.383968,108.218763 L209.976423,99.2223711 L218.314126,113.645361 C219.224014,115.228119 219.224014,118.016521 218.314126,119.604072 Z M195.470995,153.171959 L174.509205,153.171959 L186.081885,123.246572 L200.085196,150.855747 C198.972223,152.136495 197.033315,153.171959 195.470995,153.171959 Z M154.965016,150.185412 L137.293372,119.604072 C136.943169,118.988866 136.767268,118.189897 136.683315,117.359768 L178.218315,133.908015 L170.762516,153.171959 L160.132505,153.171959 C158.29514,153.171959 155.877302,151.777758 154.965016,150.185412 Z M154.968214,83.0592268 C155.877302,81.4716753 158.29514,80.0766753 160.132505,80.0766753 L164.194216,80.0766753 L183.962279,119.051985 L179.473608,130.652216 L137.227009,113.822732 C137.254993,113.765206 137.264588,113.6925 137.293372,113.645361 L154.968214,83.0592268 Z M200.636885,83.0592268 L208.191029,96.1303608 L180.784869,105.074021 L168.113608,80.0766753 L195.470995,80.0766753 C197.302764,80.0766753 199.715005,81.4716753 200.636885,83.0592268 Z M203.658383,81.3174742 C202.128045,78.6672938 198.535669,76.5883763 195.470995,76.5883763 L160.132505,76.5883763 C157.066232,76.5883763 153.473856,78.6672938 151.942718,81.3126804 L134.275872,111.891624 C132.741536,114.542603 132.741536,118.697242 134.275872,121.348222 L151.938721,151.929562 C153.463462,154.582139 157.062234,156.661856 160.132505,156.661856 L195.470995,156.661856 C198.535669,156.661856 202.132842,154.582139 203.658383,151.929562 L221.335624,121.348222 C222.860365,118.697242 222.860365,114.542603 221.335624,111.899613 L203.658383,81.3174742 Z" id="Fill-18"></path>
                    <path d="M284.162948,234.932222 L275.35591,250.174155 L245.567092,243.13284 L243.071698,227.369979 L276.906236,216.398536 L284.162948,228.967119 C285.080032,230.55467 285.080032,233.339876 284.162948,234.932222 Z M266.500099,265.512763 C265.580617,267.093124 263.16198,268.493716 261.329412,268.493716 L249.572036,268.493716 L246.153162,246.856835 L273.532937,253.328485 L266.500099,265.512763 Z M220.820234,265.512763 L205.773511,239.466371 L239.715189,228.460572 L246.034029,268.493716 L225.985324,268.493716 C224.148759,268.493716 221.737318,267.093124 220.820234,265.512763 Z M203.14859,228.962325 L220.820234,198.380985 C221.737318,196.795031 224.143162,195.403227 225.985324,195.403227 L232.121867,195.403227 L225.703883,229.333046 L203.986518,236.379155 L203.14859,234.932222 C202.231507,233.339876 202.231507,230.55467 203.14859,228.962325 Z M266.500099,198.380985 L275.120842,213.308124 L229.487351,228.104232 L235.672667,195.403227 L261.329412,195.403227 C263.167577,195.403227 265.580617,196.795031 266.500099,198.380985 Z M287.179649,227.22217 L269.522396,196.640031 C267.998455,193.989851 264.395685,191.915727 261.329412,191.915727 L225.985324,191.915727 C222.920651,191.915727 219.321878,193.989851 217.797137,196.635237 L200.13109,227.22217 C198.591957,229.868356 198.591957,234.025392 200.13109,236.675572 L217.797137,267.256912 C219.326676,269.907892 222.920651,271.979619 225.985324,271.979619 L261.329412,271.979619 C264.390088,271.979619 267.993658,269.907892 269.522396,267.256912 L287.179649,236.675572 C288.720381,234.025392 288.720381,229.868356 287.179649,227.22217 Z" id="Fill-20"></path>
                    <path d="M350.730565,272.868072 L334.666016,300.659412 L314.800408,261.482763 L342.392863,252.486371 L350.730565,266.909361 C351.640453,268.492119 351.640453,271.280521 350.730565,272.868072 Z M327.887435,306.435959 L306.925644,306.435959 L318.498324,276.510572 L332.501635,304.119747 C331.388662,305.400495 329.449755,306.435959 327.887435,306.435959 Z M287.381455,303.449412 L269.709811,272.868072 C269.359608,272.252866 269.183707,271.453897 269.099755,270.623768 L310.634755,287.172015 L303.178955,306.435959 L292.548944,306.435959 C290.711579,306.435959 288.293741,305.041758 287.381455,303.449412 Z M287.384653,236.323227 C288.293741,234.735675 290.711579,233.340675 292.548944,233.340675 L296.610655,233.340675 L316.378718,272.315985 L311.890047,283.916216 L269.643448,267.086732 C269.671432,267.029206 269.681027,266.9565 269.709811,266.909361 L287.384653,236.323227 Z M333.053324,236.323227 L340.607468,249.394361 L313.201309,258.338021 L300.530047,233.340675 L327.887435,233.340675 C329.719203,233.340675 332.131444,234.735675 333.053324,236.323227 Z M336.074822,234.581474 C334.544484,231.931294 330.952108,229.852376 327.887435,229.852376 L292.548944,229.852376 C289.482671,229.852376 285.890295,231.931294 284.359158,234.57668 L266.692311,265.155624 C265.157975,267.806603 265.157975,271.961242 266.692311,274.612222 L284.35516,305.193562 C285.879901,307.846139 289.478673,309.925856 292.548944,309.925856 L327.887435,309.925856 C330.952108,309.925856 334.549282,307.846139 336.074822,305.193562 L353.752063,274.612222 C355.276804,271.961242 355.276804,267.806603 353.752063,265.163613 L336.074822,234.581474 Z" id="Fill-22"></path>
                    <path d="M284.162948,157.770106 L275.35591,173.012039 L245.567092,165.970724 L243.071698,150.207863 L276.906236,139.23642 L284.162948,151.805003 C285.080032,153.392554 285.080032,156.17776 284.162948,157.770106 Z M266.500099,188.350647 C265.580617,189.931008 263.16198,191.331601 261.329412,191.331601 L249.572036,191.331601 L246.153162,169.694719 L273.532937,176.166369 L266.500099,188.350647 Z M220.820234,188.350647 L205.773511,162.304255 L239.715189,151.298456 L246.034029,191.331601 L225.985324,191.331601 C224.148759,191.331601 221.737318,189.931008 220.820234,188.350647 Z M203.14859,151.800209 L220.820234,121.218869 C221.737318,119.632915 224.143162,118.241111 225.985324,118.241111 L232.121867,118.241111 L225.703883,152.17093 L203.986518,159.217039 L203.14859,157.770106 C202.231507,156.17776 202.231507,153.392554 203.14859,151.800209 Z M266.500099,121.218869 L275.120842,136.146008 L229.487351,150.942116 L235.672667,118.241111 L261.329412,118.241111 C263.167577,118.241111 265.580617,119.632915 266.500099,121.218869 Z M287.179649,150.060054 L269.522396,119.477915 C267.998455,116.827735 264.395685,114.753611 261.329412,114.753611 L225.985324,114.753611 C222.920651,114.753611 219.321878,116.827735 217.797137,119.473121 L200.13109,150.060054 C198.591957,152.70624 198.591957,156.863276 200.13109,159.513456 L217.797137,190.094796 C219.326676,192.745776 222.920651,194.817503 225.985324,194.817503 L261.329412,194.817503 C264.390088,194.817503 267.993658,192.745776 269.522396,190.094796 L287.179649,159.513456 C288.720381,156.863276 288.720381,152.70624 287.179649,150.060054 Z" id="Fill-25"></path>
                    <path d="M269.326427,37.0574639 L273.724749,29.4544742 L301.024569,41.7793711 L280.776776,62.8322062 L269.326427,43.0161753 C268.410143,41.4286237 268.410143,38.6458144 269.326427,37.0574639 Z M287.001269,6.46493814 C287.910357,4.88377835 290.328195,3.48797938 292.16556,3.48797938 L313.842148,3.48797938 L321.951979,47.4017165 L275.476562,26.4159948 L287.001269,6.46493814 Z M332.66994,6.47053093 L338.912823,17.2701959 L320.743859,21.6749124 L317.38735,3.48797938 L327.504051,3.48797938 C329.335819,3.48797938 331.74806,4.88377835 332.66994,6.47053093 Z M350.347181,43.0161753 L342.461224,56.6569742 L325.820199,49.1514588 L321.382699,25.1120773 L340.738994,20.4245258 L350.337587,37.0534691 C351.257069,38.6458144 351.257069,41.4286237 350.347181,43.0161753 Z M332.66994,73.6023093 C331.74806,75.1898608 329.335819,76.5824639 327.504051,76.5824639 L292.16556,76.5824639 C290.328195,76.5824639 287.910357,75.1898608 286.998071,73.6023093 L282.594952,65.9801443 L304.397868,43.307799 L340.705413,59.6954536 L332.66994,73.6023093 Z M283.971776,75.3424639 C285.506911,77.9926443 289.099287,80.0739588 292.16556,80.0739588 L327.504051,80.0739588 C330.568724,80.0739588 334.1611,77.9926443 335.691438,75.3472577 L353.368679,44.7619227 C354.89342,42.1101443 354.89342,37.9618969 353.368679,35.3109175 L335.691438,4.72478351 C334.165898,2.07939691 330.568724,-0.000319587629 327.504051,-0.000319587629 L292.16556,-0.000319587629 C289.095289,-0.000319587629 285.496517,2.07939691 283.975774,4.72478351 L266.308927,35.3109175 C264.774591,37.9618969 264.774591,42.1101443 266.308927,44.7619227 L283.971776,75.3424639 Z" id="Fill-27"></path>
                    <path d="M350.730565,119.604072 L334.666016,147.395412 L314.800408,108.218763 L342.392863,99.2223711 L350.730565,113.645361 C351.640453,115.228119 351.640453,118.016521 350.730565,119.604072 Z M327.887435,153.171959 L306.925644,153.171959 L318.498324,123.246572 L332.501635,150.855747 C331.388662,152.136495 329.449755,153.171959 327.887435,153.171959 Z M287.381455,150.185412 L269.709811,119.604072 C269.359608,118.988866 269.183707,118.189897 269.099755,117.359768 L310.634755,133.908015 L303.178955,153.171959 L292.548944,153.171959 C290.711579,153.171959 288.293741,151.777758 287.381455,150.185412 Z M287.384653,83.0592268 C288.293741,81.4716753 290.711579,80.0766753 292.548944,80.0766753 L296.610655,80.0766753 L316.378718,119.051985 L311.890047,130.652216 L269.643448,113.822732 C269.671432,113.765206 269.681027,113.6925 269.709811,113.645361 L287.384653,83.0592268 Z M333.053324,83.0592268 L340.607468,96.1303608 L313.201309,105.074021 L300.530047,80.0766753 L327.887435,80.0766753 C329.719203,80.0766753 332.131444,81.4716753 333.053324,83.0592268 Z M336.074822,81.3174742 C334.544484,78.6672938 330.952108,76.5883763 327.887435,76.5883763 L292.548944,76.5883763 C289.482671,76.5883763 285.890295,78.6672938 284.359158,81.3126804 L266.692311,111.891624 C265.157975,114.542603 265.157975,118.697242 266.692311,121.348222 L284.35516,151.929562 C285.879901,154.582139 289.478673,156.661856 292.548944,156.661856 L327.887435,156.661856 C330.952108,156.661856 334.549282,154.582139 336.074822,151.929562 L353.752063,121.348222 C355.276804,118.697242 355.276804,114.542603 353.752063,111.899613 L336.074822,81.3174742 Z" id="Fill-30"></path>
                </g>
            </g>
        </g>
    </g>
</svg>