<?xml version="1.0" encoding="UTF-8"?>
<svg width="355px" height="311px" viewBox="0 0 355 311" version="1.1" xmlns="http://www.w3.org/2000/svg" xmlns:xlink="http://www.w3.org/1999/xlink">
    <!-- Generator: Sketch 49.2 (51160) - http://www.bohemiancoding.com/sketch -->
    <title>Group 4</title>
    <desc>Created with Sketch.</desc>
    <defs></defs>
    <g id="Page-1" stroke="none" stroke-width="1" fill="none" fill-rule="evenodd" opacity="0.501524003">
        <g id="Homepage" transform="translate(-562.000000, -871.000000)" fill="#F2ECE8">
            <g id="Group-4" transform="translate(562.000000, 871.000000)">
                <path d="M151.54882,81.4196401 L142.741782,96.6714319 L112.952965,89.625563 L110.45757,73.8525064 L144.292109,62.8739666 L151.54882,75.4506787 C152.465904,77.0392571 152.465904,79.8262648 151.54882,81.4196401 Z M133.885971,112.019961 C132.966489,113.601344 130.547852,115.002843 128.715284,115.002843 L116.957908,115.002843 L113.539034,93.3519666 L140.918809,99.8278021 L133.885971,112.019961 Z M88.2061064,112.019961 L73.1593834,85.9567224 L107.101061,74.9438046 L113.419901,115.002843 L93.3711965,115.002843 C91.5346312,115.002843 89.1231898,113.601344 88.2061064,112.019961 Z M70.5344623,75.4458817 L88.2061064,44.8447609 C89.1231898,43.2577815 91.5290343,41.8650771 93.3711965,41.8650771 L99.5077393,41.8650771 L93.0897551,75.8168432 L71.3723902,82.867509 L70.5344623,81.4196401 C69.6173789,79.8262648 69.6173789,77.0392571 70.5344623,75.4458817 Z M133.885971,44.8447609 L142.506715,59.7815553 L96.8732235,74.5872339 L103.058539,41.8650771 L128.715284,41.8650771 C130.553449,41.8650771 132.966489,43.2577815 133.885971,44.8447609 Z M154.565521,73.7046015 L136.908269,43.1026812 C135.384327,40.4507866 131.781557,38.3753213 128.715284,38.3753213 L93.3711965,38.3753213 C90.3065231,38.3753213 86.7077506,40.4507866 85.1830096,43.0978843 L67.5169623,73.7046015 C65.9778294,76.3524987 65.9778294,80.5122237 67.5169623,83.1641183 L85.1830096,113.765239 C86.7125479,116.417933 90.3065231,118.491 93.3711965,118.491 L128.715284,118.491 C131.77596,118.491 135.37953,116.417933 136.908269,113.765239 L154.565521,83.1641183 C156.106253,80.5122237 156.106253,76.3524987 154.565521,73.7046015 Z" id="Fill-8"></path>
                <path d="M4.16825169,37.0817532 L8.56657376,29.4738458 L35.8663936,41.8067147 L15.6186008,62.8731671 L4.16825169,43.0443188 C3.25196791,41.4557404 3.25196791,38.6711311 4.16825169,37.0817532 Z M21.843094,6.46943959 C22.7521819,4.88725707 25.1700197,3.49055527 27.0073846,3.49055527 L48.6839724,3.49055527 L56.7938035,47.4326967 L10.3183868,26.433401 L21.843094,6.46943959 Z M67.5117652,6.47503599 L73.7546481,17.2816864 L55.5856841,21.6892519 L52.2291751,3.49055527 L62.3458756,3.49055527 C64.1776436,3.49055527 66.5898846,4.88725707 67.5117652,6.47503599 Z M85.1890062,43.0443188 L77.303049,56.6939409 L60.6620242,49.1835707 L56.2245242,25.1286401 L75.5808193,20.4380566 L85.1794116,37.0777558 C86.0988936,38.6711311 86.0988936,41.4557404 85.1890062,43.0443188 Z M67.5117652,73.6502365 C66.5898846,75.2388149 64.1776436,76.6323188 62.3458756,76.6323188 L27.0073846,76.6323188 C25.1700197,76.6323188 22.7521819,75.2388149 21.8398958,73.6502365 L17.4367765,66.0231414 L39.2396931,43.3361311 L75.5472382,59.7343856 L67.5117652,73.6502365 Z M18.8136008,75.3915167 C20.3487359,78.0434113 23.941112,80.126072 27.0073846,80.126072 L62.3458756,80.126072 C65.410549,80.126072 69.0029251,78.0434113 70.533263,75.3963136 L88.2105039,44.7911954 C89.7352449,42.1377018 89.7352449,37.9867712 88.2105039,35.3340771 L70.533263,4.72815938 C69.0077224,2.0810617 65.410549,0 62.3458756,0 L27.0073846,0 C23.9371143,0 20.3383418,2.0810617 18.8175985,4.72815938 L1.15075169,35.3340771 C-0.383583896,37.9867712 -0.383583896,42.1377018 1.15075169,44.7911954 L18.8136008,75.3915167 Z" id="Fill-10"></path>
                <path d="M85.1890062,119.794162 L69.1244566,147.603478 L49.2588485,108.401488 L76.8513035,99.3992776 L85.1890062,113.831596 C86.0988936,115.415378 86.0988936,118.205584 85.1890062,119.794162 Z M62.3458756,153.383761 L41.384085,153.383761 L52.9567652,123.439018 L66.960076,151.066051 C65.847103,152.347627 63.9081954,153.383761 62.3458756,153.383761 Z M21.8398958,150.395283 L4.16825169,119.794162 C3.81804899,119.178558 3.64214809,118.379072 3.55819538,117.548406 L45.0931954,134.107357 L37.6373958,153.383761 L27.0073846,153.383761 C25.1700197,153.383761 22.7521819,151.988658 21.8398958,150.395283 Z M21.843094,83.2256787 C22.7521819,81.6371003 25.1700197,80.2411979 27.0073846,80.2411979 L31.0690963,80.2411979 L50.8371593,119.241717 L46.3484882,130.849452 L4.10188908,114.009082 C4.12987331,113.951519 4.13946791,113.878766 4.16825169,113.831596 L21.843094,83.2256787 Z M67.5117652,83.2256787 L75.0659093,96.3052674 L47.6597494,105.254712 L34.9884882,80.2411979 L62.3458756,80.2411979 C64.1776436,80.2411979 66.5898846,81.6371003 67.5117652,83.2256787 Z M70.533263,81.4827995 C69.0029251,78.8309049 65.410549,76.7506427 62.3458756,76.7506427 L27.0073846,76.7506427 C23.941112,76.7506427 20.3487359,78.8309049 18.8175985,81.4780026 L1.15075169,112.076725 C-0.383583896,114.729419 -0.383583896,118.886746 1.15075169,121.53944 L18.8136008,152.14056 C20.3383418,154.794853 23.9371143,156.875915 27.0073846,156.875915 L62.3458756,156.875915 C65.410549,156.875915 69.0077224,154.794853 70.533263,152.14056 L88.2105039,121.53944 C89.7352449,118.886746 89.7352449,114.729419 88.2105039,112.08472 L70.533263,81.4827995 Z" id="Fill-13"></path>
                <path d="M136.893477,37.0817532 L141.291799,29.4738458 L168.591619,41.8067147 L148.343826,62.8731671 L136.893477,43.0443188 C135.977193,41.4557404 135.977193,38.6711311 136.893477,37.0817532 Z M154.568319,6.46943959 C155.477407,4.88725707 157.895245,3.49055527 159.73261,3.49055527 L181.409198,3.49055527 L189.519029,47.4326967 L143.043612,26.433401 L154.568319,6.46943959 Z M200.23699,6.47503599 L206.479873,17.2816864 L188.310909,21.6892519 L184.9544,3.49055527 L195.071101,3.49055527 C196.902869,3.49055527 199.31511,4.88725707 200.23699,6.47503599 Z M217.914231,43.0443188 L210.028274,56.6939409 L193.387249,49.1835707 L188.949749,25.1286401 L208.306044,20.4380566 L217.904637,37.0777558 C218.824119,38.6711311 218.824119,41.4557404 217.914231,43.0443188 Z M200.23699,73.6502365 C199.31511,75.2388149 196.902869,76.6323188 195.071101,76.6323188 L159.73261,76.6323188 C157.895245,76.6323188 155.477407,75.2388149 154.565121,73.6502365 L150.162002,66.0231414 L171.964918,43.3361311 L208.272463,59.7343856 L200.23699,73.6502365 Z M151.538826,75.3915167 C153.073961,78.0434113 156.666337,80.126072 159.73261,80.126072 L195.071101,80.126072 C198.135774,80.126072 201.72815,78.0434113 203.258488,75.3963136 L220.935729,44.7911954 C222.46047,42.1377018 222.46047,37.9867712 220.935729,35.3340771 L203.258488,4.72815938 C201.732948,2.0810617 198.135774,0 195.071101,0 L159.73261,0 C156.66234,0 153.063567,2.0810617 151.542824,4.72815938 L133.875977,35.3340771 C132.341641,37.9867712 132.341641,42.1377018 133.875977,44.7911954 L151.538826,75.3915167 Z" id="Fill-15"></path>
                <path d="M217.914231,119.794162 L201.849682,147.603478 L181.984074,108.401488 L209.576529,99.3992776 L217.914231,113.831596 C218.824119,115.415378 218.824119,118.205584 217.914231,119.794162 Z M195.071101,153.383761 L174.10931,153.383761 L185.68199,123.439018 L199.685301,151.066051 C198.572328,152.347627 196.633421,153.383761 195.071101,153.383761 Z M154.565121,150.395283 L136.893477,119.794162 C136.543274,119.178558 136.367373,118.379072 136.283421,117.548406 L177.818421,134.107357 L170.362621,153.383761 L159.73261,153.383761 C157.895245,153.383761 155.477407,151.988658 154.565121,150.395283 Z M154.568319,83.2256787 C155.477407,81.6371003 157.895245,80.2411979 159.73261,80.2411979 L163.794322,80.2411979 L183.562385,119.241717 L179.073713,130.849452 L136.827114,114.009082 C136.855099,113.951519 136.864693,113.878766 136.893477,113.831596 L154.568319,83.2256787 Z M200.23699,83.2256787 L207.791135,96.3052674 L180.384975,105.254712 L167.713713,80.2411979 L195.071101,80.2411979 C196.902869,80.2411979 199.31511,81.6371003 200.23699,83.2256787 Z M203.258488,81.4827995 C201.72815,78.8309049 198.135774,76.7506427 195.071101,76.7506427 L159.73261,76.7506427 C156.666337,76.7506427 153.073961,78.8309049 151.542824,81.4780026 L133.875977,112.076725 C132.341641,114.729419 132.341641,118.886746 133.875977,121.53944 L151.538826,152.14056 C153.063567,154.794853 156.66234,156.875915 159.73261,156.875915 L195.071101,156.875915 C198.135774,156.875915 201.732948,154.794853 203.258488,152.14056 L220.935729,121.53944 C222.46047,118.886746 222.46047,114.729419 220.935729,112.08472 L203.258488,81.4827995 Z" id="Fill-18"></path>
                <path d="M283.474496,234.920925 L274.667458,250.172717 L244.87864,243.126848 L242.383246,227.353792 L276.217784,216.375252 L283.474496,228.951964 C284.391579,230.540542 284.391579,233.32755 283.474496,234.920925 Z M265.811647,265.521247 C264.892165,267.10263 262.473528,268.504129 260.64096,268.504129 L248.883584,268.504129 L245.46471,246.853252 L272.844485,253.329087 L265.811647,265.521247 Z M220.131782,265.521247 L205.085059,239.458008 L239.026737,228.44509 L245.345577,268.504129 L225.296872,268.504129 C223.460307,268.504129 221.048865,267.10263 220.131782,265.521247 Z M202.460138,228.947167 L220.131782,198.346046 C221.048865,196.759067 223.45471,195.366362 225.296872,195.366362 L231.433415,195.366362 L225.015431,229.318129 L203.298066,236.368794 L202.460138,234.920925 C201.543055,233.32755 201.543055,230.540542 202.460138,228.947167 Z M265.811647,198.346046 L274.43239,213.282841 L228.798899,228.088519 L234.984215,195.366362 L260.64096,195.366362 C262.479124,195.366362 264.892165,196.759067 265.811647,198.346046 Z M286.491197,227.205887 L268.833944,196.603967 C267.310003,193.952072 263.707233,191.876607 260.64096,191.876607 L225.296872,191.876607 C222.232199,191.876607 218.633426,193.952072 217.108685,196.59917 L199.442638,227.205887 C197.903505,229.853784 197.903505,234.013509 199.442638,236.665404 L217.108685,267.266524 C218.638224,269.919219 222.232199,271.992285 225.296872,271.992285 L260.64096,271.992285 C263.701636,271.992285 267.305206,269.919219 268.833944,267.266524 L286.491197,236.665404 C288.031928,234.013509 288.031928,229.853784 286.491197,227.205887 Z" id="Fill-20"></path>
                <path d="M350.639457,273.295447 L334.574907,301.104763 L314.709299,261.902774 L342.301754,252.900563 L350.639457,267.332882 C351.549344,268.916663 351.549344,271.706869 350.639457,273.295447 Z M327.796326,306.885046 L306.834535,306.885046 L318.407216,276.940303 L332.410526,304.567337 C331.297553,305.848913 329.358646,306.885046 327.796326,306.885046 Z M287.290346,303.896568 L269.618702,273.295447 C269.268499,272.679843 269.092599,271.880357 269.008646,271.049692 L310.543646,287.608643 L303.087846,306.885046 L292.457835,306.885046 C290.62047,306.885046 288.202632,305.489943 287.290346,303.896568 Z M287.293544,236.726964 C288.202632,235.138386 290.62047,233.742483 292.457835,233.742483 L296.519547,233.742483 L316.28761,272.743003 L311.798939,284.350738 L269.55234,267.510368 C269.580324,267.452805 269.589918,267.380051 269.618702,267.332882 L287.293544,236.726964 Z M332.962216,236.726964 L340.51636,249.806553 L313.1102,258.755997 L300.438939,233.742483 L327.796326,233.742483 C329.628094,233.742483 332.040335,235.138386 332.962216,236.726964 Z M335.983713,234.984085 C334.453376,232.33219 330.860999,230.251928 327.796326,230.251928 L292.457835,230.251928 C289.391562,230.251928 285.799186,232.33219 284.268049,234.979288 L266.601202,265.57801 C265.066867,268.230704 265.066867,272.388031 266.601202,275.040725 L284.264051,305.641846 C285.788792,308.296139 289.387565,310.377201 292.457835,310.377201 L327.796326,310.377201 C330.860999,310.377201 334.458173,308.296139 335.983713,305.641846 L353.660954,275.040725 C355.185695,272.388031 355.185695,268.230704 353.660954,265.586005 L335.983713,234.984085 Z" id="Fill-22"></path>
                <path d="M283.474496,158.170283 L274.667458,173.422075 L244.87864,166.376206 L242.383246,150.603149 L276.217784,139.624609 L283.474496,152.201321 C284.391579,153.7899 284.391579,156.576907 283.474496,158.170283 Z M265.811647,188.770604 C264.892165,190.351987 262.473528,191.753486 260.64096,191.753486 L248.883584,191.753486 L245.46471,170.102609 L272.844485,176.578445 L265.811647,188.770604 Z M220.131782,188.770604 L205.085059,162.707365 L239.026737,151.694447 L245.345577,191.753486 L225.296872,191.753486 C223.460307,191.753486 221.048865,190.351987 220.131782,188.770604 Z M202.460138,152.196524 L220.131782,121.595404 C221.048865,120.008424 223.45471,118.61572 225.296872,118.61572 L231.433415,118.61572 L225.015431,152.567486 L203.298066,159.618152 L202.460138,158.170283 C201.543055,156.576907 201.543055,153.7899 202.460138,152.196524 Z M265.811647,121.595404 L274.43239,136.532198 L228.798899,151.337877 L234.984215,118.61572 L260.64096,118.61572 C262.479124,118.61572 264.892165,120.008424 265.811647,121.595404 Z M286.491197,150.455244 L268.833944,119.853324 C267.310003,117.201429 263.707233,115.125964 260.64096,115.125964 L225.296872,115.125964 C222.232199,115.125964 218.633426,117.201429 217.108685,119.848527 L199.442638,150.455244 C197.903505,153.103141 197.903505,157.262866 199.442638,159.914761 L217.108685,190.515882 C218.638224,193.168576 222.232199,195.241643 225.296872,195.241643 L260.64096,195.241643 C263.701636,195.241643 267.305206,193.168576 268.833944,190.515882 L286.491197,159.914761 C288.031928,157.262866 288.031928,153.103141 286.491197,150.455244 Z" id="Fill-25"></path>
                <path d="M268.819153,37.0817532 L273.217475,29.4738458 L300.517294,41.8067147 L280.269502,62.8731671 L268.819153,43.0443188 C267.902869,41.4557404 267.902869,38.6711311 268.819153,37.0817532 Z M286.493995,6.46943959 C287.403083,4.88725707 289.820921,3.49055527 291.658285,3.49055527 L313.334873,3.49055527 L321.444704,47.4326967 L274.969288,26.433401 L286.493995,6.46943959 Z M332.162666,6.47503599 L338.405549,17.2816864 L320.236585,21.6892519 L316.880076,3.49055527 L326.996776,3.49055527 C328.828544,3.49055527 331.240785,4.88725707 332.162666,6.47503599 Z M349.839907,43.0443188 L341.95395,56.6939409 L325.312925,49.1835707 L320.875425,25.1286401 L340.23172,20.4380566 L349.830313,37.0777558 C350.749794,38.6711311 350.749794,41.4557404 349.839907,43.0443188 Z M332.162666,73.6502365 C331.240785,75.2388149 328.828544,76.6323188 326.996776,76.6323188 L291.658285,76.6323188 C289.820921,76.6323188 287.403083,75.2388149 286.490797,73.6502365 L282.087677,66.0231414 L303.890594,43.3361311 L340.198139,59.7343856 L332.162666,73.6502365 Z M283.464502,75.3915167 C284.999637,78.0434113 288.592013,80.126072 291.658285,80.126072 L326.996776,80.126072 C330.06145,80.126072 333.653826,78.0434113 335.184164,75.3963136 L352.861405,44.7911954 C354.386146,42.1377018 354.386146,37.9867712 352.861405,35.3340771 L335.184164,4.72815938 C333.658623,2.0810617 330.06145,0 326.996776,0 L291.658285,0 C288.588015,0 284.989243,2.0810617 283.468499,4.72815938 L265.801653,35.3340771 C264.267317,37.9867712 264.267317,42.1377018 265.801653,44.7911954 L283.464502,75.3915167 Z" id="Fill-27"></path>
                <path d="M350.639457,119.794162 L334.574907,147.603478 L314.709299,108.401488 L342.301754,99.3992776 L350.639457,113.831596 C351.549344,115.415378 351.549344,118.205584 350.639457,119.794162 Z M327.796326,153.383761 L306.834535,153.383761 L318.407216,123.439018 L332.410526,151.066051 C331.297553,152.347627 329.358646,153.383761 327.796326,153.383761 Z M287.290346,150.395283 L269.618702,119.794162 C269.268499,119.178558 269.092599,118.379072 269.008646,117.548406 L310.543646,134.107357 L303.087846,153.383761 L292.457835,153.383761 C290.62047,153.383761 288.202632,151.988658 287.290346,150.395283 Z M287.293544,83.2256787 C288.202632,81.6371003 290.62047,80.2411979 292.457835,80.2411979 L296.519547,80.2411979 L316.28761,119.241717 L311.798939,130.849452 L269.55234,114.009082 C269.580324,113.951519 269.589918,113.878766 269.618702,113.831596 L287.293544,83.2256787 Z M332.962216,83.2256787 L340.51636,96.3052674 L313.1102,105.254712 L300.438939,80.2411979 L327.796326,80.2411979 C329.628094,80.2411979 332.040335,81.6371003 332.962216,83.2256787 Z M335.983713,81.4827995 C334.453376,78.8309049 330.860999,76.7506427 327.796326,76.7506427 L292.457835,76.7506427 C289.391562,76.7506427 285.799186,78.8309049 284.268049,81.4780026 L266.601202,112.076725 C265.066867,114.729419 265.066867,118.886746 266.601202,121.53944 L284.264051,152.14056 C285.788792,154.794853 289.387565,156.875915 292.457835,156.875915 L327.796326,156.875915 C330.860999,156.875915 334.458173,154.794853 335.983713,152.14056 L353.660954,121.53944 C355.185695,118.886746 355.185695,114.729419 353.660954,112.08472 L335.983713,81.4827995 Z" id="Fill-30"></path>
            </g>
        </g>
    </g>
</svg>