<?xml version="1.0" encoding="UTF-8"?>
<svg width="487px" height="310px" viewBox="0 0 487 310" version="1.1" xmlns="http://www.w3.org/2000/svg" xmlns:xlink="http://www.w3.org/1999/xlink">
    <!-- Generator: Sketch 49.2 (51160) - http://www.bohemiancoding.com/sketch -->
    <title>Group 4</title>
    <desc>Created with Sketch.</desc>
    <defs></defs>
    <g id="Symbols" stroke="none" stroke-width="1" fill="none" fill-rule="evenodd" opacity="0.0500000007">
        <g id="Group-4" fill="#FFFFFF">
            <path d="M151.186208,81.0164948 L142.379169,96.2584278 L112.590352,89.2171134 L110.094958,73.4542526 L143.929496,62.4828093 L151.186208,75.0513918 C152.103291,76.6389433 152.103291,79.4241495 151.186208,81.0164948 Z M133.523359,111.597036 C132.603877,113.177397 130.185239,114.57799 128.352672,114.57799 L116.595296,114.57799 L113.176422,92.9411082 L140.556197,99.4127577 L133.523359,111.597036 Z M87.8434938,111.597036 L72.7967708,85.5506443 L106.738449,74.5448454 L113.057289,114.57799 L93.0085839,114.57799 C91.1720186,114.57799 88.7605771,113.177397 87.8434938,111.597036 Z M70.1718497,75.0465979 L87.8434938,44.4652577 C88.7605771,42.8793041 91.1664217,41.4875 93.0085839,41.4875 L99.1451267,41.4875 L92.7271425,75.4173196 L71.0097776,82.4634278 L70.1718497,81.0164948 C69.2547663,79.4241495 69.2547663,76.6389433 70.1718497,75.0465979 Z M133.523359,44.4652577 L142.144102,59.3923969 L96.5106109,74.1885052 L102.695926,41.4875 L128.352672,41.4875 C130.190836,41.4875 132.603877,42.8793041 133.523359,44.4652577 Z M154.202908,73.3064433 L136.545656,42.7243041 C135.021715,40.0741237 131.418944,38 128.352672,38 L93.0085839,38 C89.9439105,38 86.345138,40.0741237 84.820397,42.7195103 L67.1543497,73.3064433 C65.6152168,75.9526289 65.6152168,80.1096649 67.1543497,82.7598454 L84.820397,113.341186 C86.3499352,115.992165 89.9439105,118.063892 93.0085839,118.063892 L128.352672,118.063892 C131.413347,118.063892 135.016917,115.992165 136.545656,113.341186 L154.202908,82.7598454 C155.74364,80.1096649 155.74364,75.9526289 154.202908,73.3064433 Z" id="Fill-1"></path>
            <path d="M85.1890062,119.015696 L69.1244566,146.807036 L49.2588485,107.630387 L76.8513035,98.6339948 L85.1890062,113.056985 C86.0988936,114.639742 86.0988936,117.428144 85.1890062,119.015696 Z M62.3458756,152.583582 L41.384085,152.583582 L52.9567652,122.658196 L66.960076,150.267371 C65.847103,151.548119 63.9081954,152.583582 62.3458756,152.583582 Z M21.8398958,149.597036 L4.16825169,119.015696 C3.81804899,118.40049 3.64214809,117.601521 3.55819538,116.771392 L45.0931954,133.319639 L37.6373958,152.583582 L27.0073846,152.583582 C25.1700197,152.583582 22.7521819,151.189381 21.8398958,149.597036 Z M21.843094,82.4708505 C22.7521819,80.883299 25.1700197,79.488299 27.0073846,79.488299 L31.0690963,79.488299 L50.8371593,118.463608 L46.3484882,130.06384 L4.10188908,113.234356 C4.12987331,113.17683 4.13946791,113.104124 4.16825169,113.056985 L21.843094,82.4708505 Z M67.5117652,82.4708505 L75.0659093,95.5419845 L47.6597494,104.485644 L34.9884882,79.488299 L62.3458756,79.488299 C64.1776436,79.488299 66.5898846,80.883299 67.5117652,82.4708505 Z M70.533263,80.7290979 C69.0029251,78.0789175 65.410549,76 62.3458756,76 L27.0073846,76 C23.941112,76 20.3487359,78.0789175 18.8175985,80.7243041 L1.15075169,111.303247 C-0.383583896,113.954227 -0.383583896,118.108866 1.15075169,120.759845 L18.8136008,151.341186 C20.3383418,153.993763 23.9371143,156.073479 27.0073846,156.073479 L62.3458756,156.073479 C65.410549,156.073479 69.0077224,153.993763 70.533263,151.341186 L88.2105039,120.759845 C89.7352449,118.108866 89.7352449,113.954227 88.2105039,111.311237 L70.533263,80.7290979 Z" id="Fill-3"></path>
            <path d="M283.746509,81.1353892 L274.939471,96.3773222 L245.150653,89.3360077 L242.655259,73.5731469 L276.489797,62.6017036 L283.746509,75.1702861 C284.663592,76.7578376 284.663592,79.5430438 283.746509,81.1353892 Z M266.08366,111.71593 C265.164178,113.296291 262.745541,114.696884 260.912973,114.696884 L249.155597,114.696884 L245.736723,93.0600026 L273.116498,99.5316521 L266.08366,111.71593 Z M220.403795,111.71593 L205.357072,85.6695387 L239.29875,74.6637397 L245.61759,114.696884 L225.568885,114.696884 C223.73232,114.696884 221.320878,113.296291 220.403795,111.71593 Z M202.732151,75.1654923 L220.403795,44.5841521 C221.320878,42.9981985 223.726723,41.6063943 225.568885,41.6063943 L231.705428,41.6063943 L225.287444,75.5362139 L203.570079,82.5823222 L202.732151,81.1353892 C201.815068,79.5430438 201.815068,76.7578376 202.732151,75.1654923 Z M266.08366,44.5841521 L274.704403,59.5112912 L229.070912,74.3073995 L235.256227,41.6063943 L260.912973,41.6063943 C262.751137,41.6063943 265.164178,42.9981985 266.08366,44.5841521 Z M286.763209,73.4253376 L269.105957,42.8431985 C267.582016,40.193018 263.979245,38.1188943 260.912973,38.1188943 L225.568885,38.1188943 C222.504212,38.1188943 218.905439,40.193018 217.380698,42.8384046 L199.714651,73.4253376 C198.175518,76.0715232 198.175518,80.2285593 199.714651,82.8787397 L217.380698,113.46008 C218.910236,116.111059 222.504212,118.182786 225.568885,118.182786 L260.912973,118.182786 C263.973649,118.182786 267.577218,116.111059 269.105957,113.46008 L286.763209,82.8787397 C288.303941,80.2285593 288.303941,76.0715232 286.763209,73.4253376 Z" id="Fill-8"></path>
            <path d="M136.584537,37.0574639 L140.982859,29.4544742 L168.282679,41.7793711 L148.034886,62.8322062 L136.584537,43.0161753 C135.668253,41.4286237 135.668253,38.6458144 136.584537,37.0574639 Z M154.25938,6.46493814 C155.168467,4.88377835 157.586305,3.48797938 159.42367,3.48797938 L181.100258,3.48797938 L189.210089,47.4017165 L142.734672,26.4159948 L154.25938,6.46493814 Z M199.928051,6.47053093 L206.170934,17.2701959 L188.00197,21.6749124 L184.645461,3.48797938 L194.762161,3.48797938 C196.593929,3.48797938 199.00617,4.88377835 199.928051,6.47053093 Z M217.605292,43.0161753 L209.719334,56.6569742 L193.07831,49.1514588 L188.64081,25.1120773 L207.997105,20.4245258 L217.595697,37.0534691 C218.515179,38.6458144 218.515179,41.4286237 217.605292,43.0161753 Z M199.928051,73.6023093 C199.00617,75.1898608 196.593929,76.5824639 194.762161,76.5824639 L159.42367,76.5824639 C157.586305,76.5824639 155.168467,75.1898608 154.256181,73.6023093 L149.853062,65.9801443 L171.655979,43.307799 L207.963524,59.6954536 L199.928051,73.6023093 Z M151.229886,75.3424639 C152.765021,77.9926443 156.357398,80.0739588 159.42367,80.0739588 L194.762161,80.0739588 C197.826834,80.0739588 201.419211,77.9926443 202.949548,75.3472577 L220.626789,44.7619227 C222.15153,42.1101443 222.15153,37.9618969 220.626789,35.3109175 L202.949548,4.72478351 C201.424008,2.07939691 197.826834,-0.000319587629 194.762161,-0.000319587629 L159.42367,-0.000319587629 C156.3534,-0.000319587629 152.754627,2.07939691 151.233884,4.72478351 L133.567037,35.3109175 C132.032702,37.9618969 132.032702,42.1101443 133.567037,44.7619227 L151.229886,75.3424639 Z" id="Fill-10"></path>
            <path d="M217.189126,119.604072 L201.124577,147.395412 L181.258968,108.218763 L208.851423,99.2223711 L217.189126,113.645361 C218.099014,115.228119 218.099014,118.016521 217.189126,119.604072 Z M194.345995,153.171959 L173.384205,153.171959 L184.956885,123.246572 L198.960196,150.855747 C197.847223,152.136495 195.908315,153.171959 194.345995,153.171959 Z M153.840016,150.185412 L136.168372,119.604072 C135.818169,118.988866 135.642268,118.189897 135.558315,117.359768 L177.093315,133.908015 L169.637516,153.171959 L159.007505,153.171959 C157.17014,153.171959 154.752302,151.777758 153.840016,150.185412 Z M153.843214,83.0592268 C154.752302,81.4716753 157.17014,80.0766753 159.007505,80.0766753 L163.069216,80.0766753 L182.837279,119.051985 L178.348608,130.652216 L136.102009,113.822732 C136.129993,113.765206 136.139588,113.6925 136.168372,113.645361 L153.843214,83.0592268 Z M199.511885,83.0592268 L207.066029,96.1303608 L179.659869,105.074021 L166.988608,80.0766753 L194.345995,80.0766753 C196.177764,80.0766753 198.590005,81.4716753 199.511885,83.0592268 Z M202.533383,81.3174742 C201.003045,78.6672938 197.410669,76.5883763 194.345995,76.5883763 L159.007505,76.5883763 C155.941232,76.5883763 152.348856,78.6672938 150.817718,81.3126804 L133.150872,111.891624 C131.616536,114.542603 131.616536,118.697242 133.150872,121.348222 L150.813721,151.929562 C152.338462,154.582139 155.937234,156.661856 159.007505,156.661856 L194.345995,156.661856 C197.410669,156.661856 201.007842,154.582139 202.533383,151.929562 L220.210624,121.348222 C221.735365,118.697242 221.735365,114.542603 220.210624,111.899613 L202.533383,81.3174742 Z" id="Fill-13"></path>
            <path d="M268.909988,37.0574639 L273.30831,29.4544742 L300.60813,41.7793711 L280.360337,62.8322062 L268.909988,43.0161753 C267.993704,41.4286237 267.993704,38.6458144 268.909988,37.0574639 Z M286.58483,6.46493814 C287.493918,4.88377835 289.911756,3.48797938 291.74912,3.48797938 L313.425708,3.48797938 L321.535539,47.4017165 L275.060123,26.4159948 L286.58483,6.46493814 Z M332.253501,6.47053093 L338.496384,17.2701959 L320.32742,21.6749124 L316.970911,3.48797938 L327.087611,3.48797938 C328.91938,3.48797938 331.33162,4.88377835 332.253501,6.47053093 Z M349.930742,43.0161753 L342.044785,56.6569742 L325.40376,49.1514588 L320.96626,25.1120773 L340.322555,20.4245258 L349.921148,37.0534691 C350.84063,38.6458144 350.84063,41.4286237 349.930742,43.0161753 Z M332.253501,73.6023093 C331.33162,75.1898608 328.91938,76.5824639 327.087611,76.5824639 L291.74912,76.5824639 C289.911756,76.5824639 287.493918,75.1898608 286.581632,73.6023093 L282.178512,65.9801443 L303.981429,43.307799 L340.288974,59.6954536 L332.253501,73.6023093 Z M283.555337,75.3424639 C285.090472,77.9926443 288.682848,80.0739588 291.74912,80.0739588 L327.087611,80.0739588 C330.152285,80.0739588 333.744661,77.9926443 335.274999,75.3472577 L352.95224,44.7619227 C354.476981,42.1101443 354.476981,37.9618969 352.95224,35.3109175 L335.274999,4.72478351 C333.749458,2.07939691 330.152285,-0.000319587629 327.087611,-0.000319587629 L291.74912,-0.000319587629 C288.67885,-0.000319587629 285.080078,2.07939691 283.559334,4.72478351 L265.892488,35.3109175 C264.358152,37.9618969 264.358152,42.1101443 265.892488,44.7619227 L283.555337,75.3424639 Z" id="Fill-15"></path>
            <path d="M350.314126,119.604072 L334.249577,147.395412 L314.383968,108.218763 L341.976423,99.2223711 L350.314126,113.645361 C351.224014,115.228119 351.224014,118.016521 350.314126,119.604072 Z M327.470995,153.171959 L306.509205,153.171959 L318.081885,123.246572 L332.085196,150.855747 C330.972223,152.136495 329.033315,153.171959 327.470995,153.171959 Z M286.965016,150.185412 L269.293372,119.604072 C268.943169,118.988866 268.767268,118.189897 268.683315,117.359768 L310.218315,133.908015 L302.762516,153.171959 L292.132505,153.171959 C290.29514,153.171959 287.877302,151.777758 286.965016,150.185412 Z M286.968214,83.0592268 C287.877302,81.4716753 290.29514,80.0766753 292.132505,80.0766753 L296.194216,80.0766753 L315.962279,119.051985 L311.473608,130.652216 L269.227009,113.822732 C269.254993,113.765206 269.264588,113.6925 269.293372,113.645361 L286.968214,83.0592268 Z M332.636885,83.0592268 L340.191029,96.1303608 L312.784869,105.074021 L300.113608,80.0766753 L327.470995,80.0766753 C329.302764,80.0766753 331.715005,81.4716753 332.636885,83.0592268 Z M335.658383,81.3174742 C334.128045,78.6672938 330.535669,76.5883763 327.470995,76.5883763 L292.132505,76.5883763 C289.066232,76.5883763 285.473856,78.6672938 283.942718,81.3126804 L266.275872,111.891624 C264.741536,114.542603 264.741536,118.697242 266.275872,121.348222 L283.938721,151.929562 C285.463462,154.582139 289.062234,156.661856 292.132505,156.661856 L327.470995,156.661856 C330.535669,156.661856 334.132842,154.582139 335.658383,151.929562 L353.335624,121.348222 C354.860365,118.697242 354.860365,114.542603 353.335624,111.899613 L335.658383,81.3174742 Z" id="Fill-18"></path>
            <path d="M416.162948,234.932222 L407.35591,250.174155 L377.567092,243.13284 L375.071698,227.369979 L408.906236,216.398536 L416.162948,228.967119 C417.080032,230.55467 417.080032,233.339876 416.162948,234.932222 Z M398.500099,265.512763 C397.580617,267.093124 395.16198,268.493716 393.329412,268.493716 L381.572036,268.493716 L378.153162,246.856835 L405.532937,253.328485 L398.500099,265.512763 Z M352.820234,265.512763 L337.773511,239.466371 L371.715189,228.460572 L378.034029,268.493716 L357.985324,268.493716 C356.148759,268.493716 353.737318,267.093124 352.820234,265.512763 Z M335.14859,228.962325 L352.820234,198.380985 C353.737318,196.795031 356.143162,195.403227 357.985324,195.403227 L364.121867,195.403227 L357.703883,229.333046 L335.986518,236.379155 L335.14859,234.932222 C334.231507,233.339876 334.231507,230.55467 335.14859,228.962325 Z M398.500099,198.380985 L407.120842,213.308124 L361.487351,228.104232 L367.672667,195.403227 L393.329412,195.403227 C395.167577,195.403227 397.580617,196.795031 398.500099,198.380985 Z M419.179649,227.22217 L401.522396,196.640031 C399.998455,193.989851 396.395685,191.915727 393.329412,191.915727 L357.985324,191.915727 C354.920651,191.915727 351.321878,193.989851 349.797137,196.635237 L332.13109,227.22217 C330.591957,229.868356 330.591957,234.025392 332.13109,236.675572 L349.797137,267.256912 C351.326676,269.907892 354.920651,271.979619 357.985324,271.979619 L393.329412,271.979619 C396.390088,271.979619 399.993658,269.907892 401.522396,267.256912 L419.179649,236.675572 C420.720381,234.025392 420.720381,229.868356 419.179649,227.22217 Z" id="Fill-20"></path>
            <path d="M482.730565,272.868072 L466.666016,300.659412 L446.800408,261.482763 L474.392863,252.486371 L482.730565,266.909361 C483.640453,268.492119 483.640453,271.280521 482.730565,272.868072 Z M459.887435,306.435959 L438.925644,306.435959 L450.498324,276.510572 L464.501635,304.119747 C463.388662,305.400495 461.449755,306.435959 459.887435,306.435959 Z M419.381455,303.449412 L401.709811,272.868072 C401.359608,272.252866 401.183707,271.453897 401.099755,270.623768 L442.634755,287.172015 L435.178955,306.435959 L424.548944,306.435959 C422.711579,306.435959 420.293741,305.041758 419.381455,303.449412 Z M419.384653,236.323227 C420.293741,234.735675 422.711579,233.340675 424.548944,233.340675 L428.610655,233.340675 L448.378718,272.315985 L443.890047,283.916216 L401.643448,267.086732 C401.671432,267.029206 401.681027,266.9565 401.709811,266.909361 L419.384653,236.323227 Z M465.053324,236.323227 L472.607468,249.394361 L445.201309,258.338021 L432.530047,233.340675 L459.887435,233.340675 C461.719203,233.340675 464.131444,234.735675 465.053324,236.323227 Z M468.074822,234.581474 C466.544484,231.931294 462.952108,229.852376 459.887435,229.852376 L424.548944,229.852376 C421.482671,229.852376 417.890295,231.931294 416.359158,234.57668 L398.692311,265.155624 C397.157975,267.806603 397.157975,271.961242 398.692311,274.612222 L416.35516,305.193562 C417.879901,307.846139 421.478673,309.925856 424.548944,309.925856 L459.887435,309.925856 C462.952108,309.925856 466.549282,307.846139 468.074822,305.193562 L485.752063,274.612222 C487.276804,271.961242 487.276804,267.806603 485.752063,265.163613 L468.074822,234.581474 Z" id="Fill-22"></path>
            <path d="M416.162948,157.770106 L407.35591,173.012039 L377.567092,165.970724 L375.071698,150.207863 L408.906236,139.23642 L416.162948,151.805003 C417.080032,153.392554 417.080032,156.17776 416.162948,157.770106 Z M398.500099,188.350647 C397.580617,189.931008 395.16198,191.331601 393.329412,191.331601 L381.572036,191.331601 L378.153162,169.694719 L405.532937,176.166369 L398.500099,188.350647 Z M352.820234,188.350647 L337.773511,162.304255 L371.715189,151.298456 L378.034029,191.331601 L357.985324,191.331601 C356.148759,191.331601 353.737318,189.931008 352.820234,188.350647 Z M335.14859,151.800209 L352.820234,121.218869 C353.737318,119.632915 356.143162,118.241111 357.985324,118.241111 L364.121867,118.241111 L357.703883,152.17093 L335.986518,159.217039 L335.14859,157.770106 C334.231507,156.17776 334.231507,153.392554 335.14859,151.800209 Z M398.500099,121.218869 L407.120842,136.146008 L361.487351,150.942116 L367.672667,118.241111 L393.329412,118.241111 C395.167577,118.241111 397.580617,119.632915 398.500099,121.218869 Z M419.179649,150.060054 L401.522396,119.477915 C399.998455,116.827735 396.395685,114.753611 393.329412,114.753611 L357.985324,114.753611 C354.920651,114.753611 351.321878,116.827735 349.797137,119.473121 L332.13109,150.060054 C330.591957,152.70624 330.591957,156.863276 332.13109,159.513456 L349.797137,190.094796 C351.326676,192.745776 354.920651,194.817503 357.985324,194.817503 L393.329412,194.817503 C396.390088,194.817503 399.993658,192.745776 401.522396,190.094796 L419.179649,159.513456 C420.720381,156.863276 420.720381,152.70624 419.179649,150.060054 Z" id="Fill-25"></path>
            <path d="M401.326427,37.0574639 L405.724749,29.4544742 L433.024569,41.7793711 L412.776776,62.8322062 L401.326427,43.0161753 C400.410143,41.4286237 400.410143,38.6458144 401.326427,37.0574639 Z M419.001269,6.46493814 C419.910357,4.88377835 422.328195,3.48797938 424.16556,3.48797938 L445.842148,3.48797938 L453.951979,47.4017165 L407.476562,26.4159948 L419.001269,6.46493814 Z M464.66994,6.47053093 L470.912823,17.2701959 L452.743859,21.6749124 L449.38735,3.48797938 L459.504051,3.48797938 C461.335819,3.48797938 463.74806,4.88377835 464.66994,6.47053093 Z M482.347181,43.0161753 L474.461224,56.6569742 L457.820199,49.1514588 L453.382699,25.1120773 L472.738994,20.4245258 L482.337587,37.0534691 C483.257069,38.6458144 483.257069,41.4286237 482.347181,43.0161753 Z M464.66994,73.6023093 C463.74806,75.1898608 461.335819,76.5824639 459.504051,76.5824639 L424.16556,76.5824639 C422.328195,76.5824639 419.910357,75.1898608 418.998071,73.6023093 L414.594952,65.9801443 L436.397868,43.307799 L472.705413,59.6954536 L464.66994,73.6023093 Z M415.971776,75.3424639 C417.506911,77.9926443 421.099287,80.0739588 424.16556,80.0739588 L459.504051,80.0739588 C462.568724,80.0739588 466.1611,77.9926443 467.691438,75.3472577 L485.368679,44.7619227 C486.89342,42.1101443 486.89342,37.9618969 485.368679,35.3109175 L467.691438,4.72478351 C466.165898,2.07939691 462.568724,-0.000319587629 459.504051,-0.000319587629 L424.16556,-0.000319587629 C421.095289,-0.000319587629 417.496517,2.07939691 415.975774,4.72478351 L398.308927,35.3109175 C396.774591,37.9618969 396.774591,42.1101443 398.308927,44.7619227 L415.971776,75.3424639 Z" id="Fill-27"></path>
            <path d="M482.730565,119.604072 L466.666016,147.395412 L446.800408,108.218763 L474.392863,99.2223711 L482.730565,113.645361 C483.640453,115.228119 483.640453,118.016521 482.730565,119.604072 Z M459.887435,153.171959 L438.925644,153.171959 L450.498324,123.246572 L464.501635,150.855747 C463.388662,152.136495 461.449755,153.171959 459.887435,153.171959 Z M419.381455,150.185412 L401.709811,119.604072 C401.359608,118.988866 401.183707,118.189897 401.099755,117.359768 L442.634755,133.908015 L435.178955,153.171959 L424.548944,153.171959 C422.711579,153.171959 420.293741,151.777758 419.381455,150.185412 Z M419.384653,83.0592268 C420.293741,81.4716753 422.711579,80.0766753 424.548944,80.0766753 L428.610655,80.0766753 L448.378718,119.051985 L443.890047,130.652216 L401.643448,113.822732 C401.671432,113.765206 401.681027,113.6925 401.709811,113.645361 L419.384653,83.0592268 Z M465.053324,83.0592268 L472.607468,96.1303608 L445.201309,105.074021 L432.530047,80.0766753 L459.887435,80.0766753 C461.719203,80.0766753 464.131444,81.4716753 465.053324,83.0592268 Z M468.074822,81.3174742 C466.544484,78.6672938 462.952108,76.5883763 459.887435,76.5883763 L424.548944,76.5883763 C421.482671,76.5883763 417.890295,78.6672938 416.359158,81.3126804 L398.692311,111.891624 C397.157975,114.542603 397.157975,118.697242 398.692311,121.348222 L416.35516,151.929562 C417.879901,154.582139 421.478673,156.661856 424.548944,156.661856 L459.887435,156.661856 C462.952108,156.661856 466.549282,154.582139 468.074822,151.929562 L485.752063,121.348222 C487.276804,118.697242 487.276804,114.542603 485.752063,111.899613 L468.074822,81.3174742 Z" id="Fill-30"></path>
        </g>
    </g>
</svg>